<svg width="254" height="142" viewBox="0 0 254 142" fill="none" xmlns="http://www.w3.org/2000/svg">
<path d="M36.4909 2.35358V139.646H16.9163V27.8508H0V2.35358H36.4909Z" fill="#333333"/>
<path d="M83.8084 2.35358V139.646H64.2338V27.8508H47.3175V2.35358H83.8084Z" fill="#333333"/>
<path d="M134.751 142C127.743 142 121.5 139.189 116.022 133.566C110.544 127.944 106.235 119.837 103.093 109.246C100.032 98.5239 98.5016 85.7753 98.5016 71C98.5016 56.2247 100.032 43.5414 103.093 32.9503C106.235 22.2284 110.544 14.0562 116.022 8.4337C121.5 2.81123 127.743 0 134.751 0C141.759 0 148.002 2.81123 153.48 8.4337C158.957 14.0562 163.227 22.2284 166.288 32.9503C169.429 43.5414 171 56.2247 171 71C171 85.7753 169.429 98.5239 166.288 109.246C163.227 119.837 158.957 127.944 153.48 133.566C148.002 139.189 141.759 142 134.751 142ZM134.751 115.13C139.906 115.13 143.934 111.534 146.834 104.343C149.814 97.151 151.305 86.0368 151.305 71C151.305 55.9632 149.814 44.849 146.834 37.6574C143.934 30.4659 139.906 26.8702 134.751 26.8702C129.676 26.8702 125.648 30.4659 122.668 37.6574C119.768 44.849 118.318 55.9632 118.318 71C118.318 86.0368 119.768 97.151 122.668 104.343C125.648 111.534 129.676 115.13 134.751 115.13Z" fill="#333333"/>
<path d="M126.841 52.6302L150.501 87.3145C159.523 79.2231 170.176 74.4579 181.253 72.5646C187.057 62.9429 195.381 54.7625 206.206 49.3148L182.546 14.6306" fill="#408DFF"/>
<path d="M156.076 32.7476L180.28 68.2292C184.487 60.2828 190.987 53.1833 199.653 47.0888L175.27 11.344C166.521 17.5007 160.077 24.6936 156.076 32.7476Z" fill="#408DFF"/>
<path d="M153.364 34.5978C144.405 35.3848 135.357 38.7597 126.433 44.6584L150.817 80.4043C159.652 74.5594 168.634 71.0978 177.568 70.0807L153.364 34.5978Z" fill="#408DFF"/>
<path d="M126.841 55.6302L150.501 90.3145C159.523 82.2231 170.176 77.4579 181.253 75.5646C187.057 65.9429 195.381 57.7625 206.206 52.3148L182.546 17.6306" stroke="#333333" stroke-width="0.7" stroke-miterlimit="10" stroke-linecap="round"/>
<path d="M175.181 14.8353L199.17 50.0016C190.792 55.9471 184.441 62.8453 180.244 70.5558L156.481 35.7202C160.413 27.89 166.685 20.8719 175.181 14.8353Z" stroke="#333333" stroke-width="0.7"/>
<path d="M176.954 72.8017C168.243 73.8945 159.503 77.2909 150.912 82.9226L126.922 47.7553C135.643 42.048 144.465 38.7697 153.191 37.9648L176.954 72.8017Z" stroke="#333333" stroke-width="0.7"/>
<path d="M216 142C208.653 142 202.109 139.189 196.367 133.566C190.624 127.944 186.107 119.837 182.813 109.246C179.604 98.5239 178 85.7753 178 71C178 56.2247 179.604 43.5414 182.813 32.9503C186.107 22.2284 190.624 14.0562 196.367 8.4337C202.109 2.81123 208.653 0 216 0C223.347 0 229.891 2.81123 235.633 8.4337C241.376 14.0562 245.851 22.2284 249.06 32.9503C252.353 43.5414 254 56.2247 254 71C254 85.7753 252.353 98.5239 249.06 109.246C245.851 119.837 241.376 127.944 235.633 133.566C229.891 139.189 223.347 142 216 142ZM216 115.13C221.404 115.13 225.627 111.534 228.667 104.343C231.791 97.151 233.353 86.0368 233.353 71C233.353 55.9632 231.791 44.849 228.667 37.6574C225.627 30.4659 221.404 26.8702 216 26.8702C210.68 26.8702 206.458 30.4659 203.333 37.6574C200.293 44.849 198.773 55.9632 198.773 71C198.773 86.0368 200.293 97.151 203.333 104.343C206.458 111.534 210.68 115.13 216 115.13Z" fill="#333333"/>
</svg>
