<svg width="98" height="80" viewBox="0 0 98 80" fill="none" xmlns="http://www.w3.org/2000/svg">
<g clip-path="url(#clip0_615_83)">
<path d="M4.2997 13.1215C4.54408 10.3709 6.97121 8.3477 9.72085 8.60253L77.7507 14.9075C80.5004 15.1623 82.5313 17.5987 82.2869 20.3493L81.9318 24.3454L77.4296 75.0197C77.1852 77.7703 74.7581 79.7935 72.0084 79.5386L3.97857 73.2337C1.22893 72.9789 -0.801995 70.5425 -0.557613 67.7919L3.94465 17.1177L4.2997 13.1215Z" fill="#408DFF"/>
<path d="M4.5918 10.3813C4.5918 7.89607 6.60652 5.88135 9.0918 5.88135H80.0005C82.4858 5.88135 84.5005 7.89607 84.5005 10.3813V14.6942V67.4337C84.5005 69.919 82.4858 71.9337 80.0005 71.9337H9.0918C6.60651 71.9337 4.5918 69.919 4.5918 67.4337V14.6942V10.3813Z" stroke="#333333"/>
<path d="M17.084 31.9912C17.084 33.6481 15.7408 34.9912 14.084 34.9912C12.4271 34.9912 11.084 33.6481 11.084 31.9912C11.084 30.3344 12.4271 28.9912 14.084 28.9912C15.7408 28.9912 17.084 30.3344 17.084 31.9912Z" fill="#F1F9FF"/>
<path d="M27.084 31.9912C27.084 33.6481 25.7408 34.9912 24.084 34.9912C22.4271 34.9912 21.084 33.6481 21.084 31.9912C21.084 30.3344 22.4271 28.9912 24.084 28.9912C25.7408 28.9912 27.084 30.3344 27.084 31.9912Z" fill="#F1F9FF"/>
<path d="M37.084 31.9912C37.084 33.6481 35.7408 34.9912 34.084 34.9912C32.4271 34.9912 31.084 33.6481 31.084 31.9912C31.084 30.3344 32.4271 28.9912 34.084 28.9912C35.7408 28.9912 37.084 30.3344 37.084 31.9912Z" fill="#F1F9FF"/>
<path d="M47.084 31.9912C47.084 33.6481 45.7408 34.9912 44.084 34.9912C42.4271 34.9912 41.084 33.6481 41.084 31.9912C41.084 30.3344 42.4271 28.9912 44.084 28.9912C45.7408 28.9912 47.084 30.3344 47.084 31.9912Z" fill="#F1F9FF"/>
<path d="M57.084 31.9912C57.084 33.6481 55.7408 34.9912 54.084 34.9912C52.4271 34.9912 51.084 33.6481 51.084 31.9912C51.084 30.3344 52.4271 28.9912 54.084 28.9912C55.7408 28.9912 57.084 30.3344 57.084 31.9912Z" fill="#F1F9FF"/>
<path d="M67.084 31.9912C67.084 33.6481 65.7408 34.9912 64.084 34.9912C62.4271 34.9912 61.084 33.6481 61.084 31.9912C61.084 30.3344 62.4271 28.9912 64.084 28.9912C65.7408 28.9912 67.084 30.3344 67.084 31.9912Z" fill="#F1F9FF"/>
<path d="M77.084 31.9912C77.084 33.6481 75.7408 34.9912 74.084 34.9912C72.4271 34.9912 71.084 33.6481 71.084 31.9912C71.084 30.3344 72.4271 28.9912 74.084 28.9912C75.7408 28.9912 77.084 30.3344 77.084 31.9912Z" fill="#F1F9FF"/>
<path d="M16.684 42.3135C16.684 43.7494 15.5199 44.9135 14.084 44.9135C12.648 44.9135 11.484 43.7494 11.484 42.3135C11.484 40.8775 12.648 39.7135 14.084 39.7135C15.5199 39.7135 16.684 40.8775 16.684 42.3135Z" stroke="#333333" stroke-width="0.8"/>
<path d="M26.684 42.3135C26.684 43.7494 25.5199 44.9135 24.084 44.9135C22.648 44.9135 21.484 43.7494 21.484 42.3135C21.484 40.8775 22.648 39.7135 24.084 39.7135C25.5199 39.7135 26.684 40.8775 26.684 42.3135Z" stroke="#333333" stroke-width="0.8"/>
<path d="M36.684 42.3135C36.684 43.7494 35.5199 44.9135 34.084 44.9135C32.648 44.9135 31.484 43.7494 31.484 42.3135C31.484 40.8775 32.648 39.7135 34.084 39.7135C35.5199 39.7135 36.684 40.8775 36.684 42.3135Z" stroke="#333333" stroke-width="0.8"/>
<path d="M46.684 42.3135C46.684 43.7494 45.5199 44.9135 44.084 44.9135C42.648 44.9135 41.484 43.7494 41.484 42.3135C41.484 40.8775 42.648 39.7135 44.084 39.7135C45.5199 39.7135 46.684 40.8775 46.684 42.3135Z" stroke="#333333" stroke-width="0.8"/>
<path d="M56.684 42.3135C56.684 43.7494 55.5199 44.9135 54.084 44.9135C52.648 44.9135 51.484 43.7494 51.484 42.3135C51.484 40.8775 52.648 39.7135 54.084 39.7135C55.5199 39.7135 56.684 40.8775 56.684 42.3135Z" stroke="#333333" stroke-width="0.8"/>
<path d="M66.684 42.3135C66.684 43.7494 65.5199 44.9135 64.084 44.9135C62.648 44.9135 61.484 43.7494 61.484 42.3135C61.484 40.8775 62.648 39.7135 64.084 39.7135C65.5199 39.7135 66.684 40.8775 66.684 42.3135Z" stroke="#333333" stroke-width="0.8"/>
<path d="M76.684 42.3135C76.684 43.7494 75.5199 44.9135 74.084 44.9135C72.648 44.9135 71.484 43.7494 71.484 42.3135C71.484 40.8775 72.648 39.7135 74.084 39.7135C75.5199 39.7135 76.684 40.8775 76.684 42.3135Z" stroke="#333333" stroke-width="0.8"/>
<path d="M16.684 50.9482C16.684 52.3842 15.5199 53.5482 14.084 53.5482C12.648 53.5482 11.484 52.3842 11.484 50.9482C11.484 49.5123 12.648 48.3482 14.084 48.3482C15.5199 48.3482 16.684 49.5123 16.684 50.9482Z" stroke="#333333" stroke-width="0.8"/>
<path d="M26.684 50.9482C26.684 52.3842 25.5199 53.5482 24.084 53.5482C22.648 53.5482 21.484 52.3842 21.484 50.9482C21.484 49.5123 22.648 48.3482 24.084 48.3482C25.5199 48.3482 26.684 49.5123 26.684 50.9482Z" stroke="#333333" stroke-width="0.8"/>
<path d="M36.684 50.9482C36.684 52.3842 35.5199 53.5482 34.084 53.5482C32.648 53.5482 31.484 52.3842 31.484 50.9482C31.484 49.5123 32.648 48.3482 34.084 48.3482C35.5199 48.3482 36.684 49.5123 36.684 50.9482Z" stroke="#333333" stroke-width="0.8"/>
<path d="M46.684 50.9482C46.684 52.3842 45.5199 53.5482 44.084 53.5482C42.648 53.5482 41.484 52.3842 41.484 50.9482C41.484 49.5123 42.648 48.3482 44.084 48.3482C45.5199 48.3482 46.684 49.5123 46.684 50.9482Z" stroke="#333333" stroke-width="0.8"/>
<path d="M56.684 50.9482C56.684 52.3842 55.5199 53.5482 54.084 53.5482C52.648 53.5482 51.484 52.3842 51.484 50.9482C51.484 49.5123 52.648 48.3482 54.084 48.3482C55.5199 48.3482 56.684 49.5123 56.684 50.9482Z" stroke="#333333" stroke-width="0.8"/>
<path d="M66.684 50.9482C66.684 52.3842 65.5199 53.5482 64.084 53.5482C62.648 53.5482 61.484 52.3842 61.484 50.9482C61.484 49.5123 62.648 48.3482 64.084 48.3482C65.5199 48.3482 66.684 49.5123 66.684 50.9482Z" stroke="#333333" stroke-width="0.8"/>
<path d="M76.684 50.9482C76.684 52.3842 75.5199 53.5482 74.084 53.5482C72.648 53.5482 71.484 52.3842 71.484 50.9482C71.484 49.5123 72.648 48.3482 74.084 48.3482C75.5199 48.3482 76.684 49.5123 76.684 50.9482Z" stroke="#333333" stroke-width="0.8"/>
<path d="M16.684 60.1309C16.684 61.5668 15.5199 62.7309 14.084 62.7309C12.648 62.7309 11.484 61.5668 11.484 60.1309C11.484 58.6949 12.648 57.5309 14.084 57.5309C15.5199 57.5309 16.684 58.6949 16.684 60.1309Z" stroke="#333333" stroke-width="0.8"/>
<path d="M26.684 60.1309C26.684 61.5668 25.5199 62.7309 24.084 62.7309C22.648 62.7309 21.484 61.5668 21.484 60.1309C21.484 58.6949 22.648 57.5309 24.084 57.5309C25.5199 57.5309 26.684 58.6949 26.684 60.1309Z" stroke="#333333" stroke-width="0.8"/>
<path d="M17.084 22.3833C17.084 24.0402 15.7408 25.3833 14.084 25.3833C12.4271 25.3833 11.084 24.0402 11.084 22.3833C11.084 20.7264 12.4271 19.3833 14.084 19.3833C15.7408 19.3833 17.084 20.7264 17.084 22.3833Z" fill="#F1F9FF"/>
<path d="M27.084 22.3833C27.084 24.0402 25.7408 25.3833 24.084 25.3833C22.4271 25.3833 21.084 24.0402 21.084 22.3833C21.084 20.7264 22.4271 19.3833 24.084 19.3833C25.7408 19.3833 27.084 20.7264 27.084 22.3833Z" fill="#F1F9FF"/>
<path d="M37.084 22.3833C37.084 24.0402 35.7408 25.3833 34.084 25.3833C32.4271 25.3833 31.084 24.0402 31.084 22.3833C31.084 20.7264 32.4271 19.3833 34.084 19.3833C35.7408 19.3833 37.084 20.7264 37.084 22.3833Z" fill="#F1F9FF"/>
<path d="M47.084 22.3833C47.084 24.0402 45.7408 25.3833 44.084 25.3833C42.4271 25.3833 41.084 24.0402 41.084 22.3833C41.084 20.7264 42.4271 19.3833 44.084 19.3833C45.7408 19.3833 47.084 20.7264 47.084 22.3833Z" fill="#F1F9FF"/>
<path d="M57.084 22.3833C57.084 24.0402 55.7408 25.3833 54.084 25.3833C52.4271 25.3833 51.084 24.0402 51.084 22.3833C51.084 20.7264 52.4271 19.3833 54.084 19.3833C55.7408 19.3833 57.084 20.7264 57.084 22.3833Z" fill="#F1F9FF"/>
<path d="M67.084 22.3833C67.084 24.0402 65.7408 25.3833 64.084 25.3833C62.4271 25.3833 61.084 24.0402 61.084 22.3833C61.084 20.7264 62.4271 19.3833 64.084 19.3833C65.7408 19.3833 67.084 20.7264 67.084 22.3833Z" fill="#F1F9FF"/>
<path d="M77.084 22.3833C77.084 24.0402 75.7408 25.3833 74.084 25.3833C72.4271 25.3833 71.084 24.0402 71.084 22.3833C71.084 20.7264 72.4271 19.3833 74.084 19.3833C75.7408 19.3833 77.084 20.7264 77.084 22.3833Z" fill="#F1F9FF"/>
<rect x="18.4" y="0.4" width="3.2" height="9.2" rx="1.6" fill="#F1F9FF" stroke="#333333" stroke-width="0.8"/>
<rect x="68.4" y="0.4" width="3.2" height="9.2" rx="1.6" fill="#F1F9FF" stroke="#333333" stroke-width="0.8"/>
</g>
<defs>
<clipPath id="clip0_615_83">
<rect width="98" height="80" fill="white"/>
</clipPath>
</defs>
</svg>
