<svg width="98" height="80" viewBox="0 0 98 80" fill="none" xmlns="http://www.w3.org/2000/svg">
<g clip-path="url(#clip0_425_1192)">
<path d="M33.5527 10.873V41C33.5527 43.7614 35.7913 46 38.5527 46H69.0175C72.1342 46 74.5029 43.1648 73.8084 40.1264C68.8728 18.5327 60.0403 10.3649 39.3396 6.0599C36.3244 5.43283 33.5527 7.79323 33.5527 10.873Z" fill="#408DFF"/>
<path d="M66.6053 46.0471C66.6053 64.5282 51.8015 79.5 33.5526 79.5C15.3037 79.5 0.5 64.5282 0.5 46.0471C0.5 28.3245 14.1142 13.8283 31.3243 12.669C32.0606 12.6194 32.8037 12.5942 33.5526 12.5942C34.5541 12.5942 35.5451 12.6393 36.5237 12.7275C53.381 14.2472 66.6053 28.5803 66.6053 46.0471Z" stroke="#333333"/>
<path d="M61.1647 46.0471C61.1647 61.4874 48.797 73.9941 33.5531 73.9941C18.3091 73.9941 5.94141 61.4874 5.94141 46.0471C5.94141 31.2406 17.3154 19.131 31.6915 18.1626C32.3067 18.1212 32.9274 18.1001 33.5531 18.1001C34.3897 18.1001 35.2176 18.1377 36.0351 18.2114C50.1166 19.4809 61.1647 31.4543 61.1647 46.0471Z" stroke="#333333"/>
<path d="M24.495 57V32.955L24.915 33.375H18.265V32.5H25.405V57H24.495ZM39.3962 57.105C37.6229 57.105 35.9779 56.79 34.4612 56.16C32.9445 55.5067 31.8012 54.69 31.0312 53.71L31.5562 53.045C32.2562 53.955 33.2945 54.725 34.6712 55.355C36.0712 55.9617 37.6462 56.265 39.3962 56.265C41.8695 56.265 43.7012 55.6817 44.8912 54.515C46.1045 53.3483 46.7112 51.8783 46.7112 50.105C46.7112 48.8217 46.4195 47.7133 45.8362 46.78C45.2529 45.8467 44.2729 45.135 42.8962 44.645C41.5429 44.155 39.6762 43.91 37.2962 43.91H32.5712L33.8662 32.5H46.4312V33.375H34.3212L34.7062 32.955L33.5162 43.49L33.1662 43.035H37.4712C39.9912 43.035 41.9862 43.3267 43.4562 43.91C44.9495 44.47 46.0229 45.2867 46.6762 46.36C47.3295 47.41 47.6562 48.6583 47.6562 50.105C47.6562 51.4117 47.3412 52.6017 46.7112 53.675C46.1045 54.7483 45.1945 55.5883 43.9812 56.195C42.7679 56.8017 41.2395 57.105 39.3962 57.105Z" fill="#333333"/>
<path d="M26.2979 4.44117V5.84198C26.2979 6.96884 27.2114 7.88234 28.3382 7.88234C29.4651 7.88234 30.3786 8.80794 30.3786 9.9348C30.3786 11.0751 31.303 12.0117 32.4433 12.0117H34.2083C35.3486 12.0117 36.273 11.0873 36.273 9.94704C36.273 8.80674 37.1974 7.88234 38.3377 7.88234H38.54C39.7921 7.88234 40.8071 6.86734 40.8071 5.61527V4.44117C40.8071 2.54066 39.2664 1 37.3659 1H29.739C27.8385 1 26.2979 2.54066 26.2979 4.44117Z" stroke="#333333"/>
</g>
<defs>
<clipPath id="clip0_425_1192">
<rect width="98" height="80" fill="white"/>
</clipPath>
</defs>
</svg>
