<svg width="99" height="81" viewBox="0 0 99 81" fill="none" xmlns="http://www.w3.org/2000/svg">
<ellipse cx="27.1566" cy="27.4628" rx="27.1566" ry="27.4628" fill="#408DFF"/>
<path d="M63.539 15.1437C63.3231 13.1772 66.7775 3.56299 66.7775 3.56299C69.7281 4.87402 72.6489 6.48924 75.8452 9.24411C79.0415 11.999 78.0243 17.623 78.0243 17.623" stroke="#333333"/>
<path d="M15.2131 32.4497C9.61851 57.502 26.9108 78.9756 27.1651 79.4867C27.4193 79.9978 28.6908 79.9978 29.1994 79.4867C29.4164 79.2686 30.3277 78.0268 31.3014 76.6745M15.2131 32.4497C20.8076 7.3974 55.1378 11.4876 55.1378 11.4876C64.4095 13.1726 73.2553 12.4211 78.2789 17.6228C83.3025 22.8245 93.5368 42.4193 94.0454 41.908M15.2131 32.4497C15.2131 32.4497 11.9071 32.4497 11.1443 30.4044C10.3814 28.3592 11.9071 27.3368 12.4158 27.0812C12.9244 26.8255 13.433 27.0812 13.6873 27.3368C13.9415 27.5924 14.1958 29.1263 13.433 29.6375C12.6701 30.1488 10.89 29.3819 9.36419 28.8706C7.8384 28.3594 8.347 25.0361 8.347 25.0361M94.0454 41.908C94.0454 41.908 98.8771 43.6977 97.8599 50.5998C96.8427 57.502 93.2825 56.4793 93.2825 56.4793M94.0454 41.908C93.0282 41.908 90.4852 42.9306 89.9766 48.5546C89.468 54.1786 92.2653 55.6005 93.2825 56.4793M93.2825 56.4793C90.025 57.4524 87.6049 57.5797 82.8563 57.502C84.0787 60.6065 84.8906 62.2867 88.7051 64.1485C84.0693 66.0146 80.5513 67.4872 77.374 69.2611M31.3014 76.6745C32.6099 74.8571 34.0311 72.8402 34.0311 72.8402C35.1871 73.1363 36.2829 73.4083 37.337 73.6539M31.3014 76.6745C31.3014 76.6745 31.9967 79.9978 33.0139 79.9978C33.2155 79.9978 33.7768 80.0429 34.0311 79.7421C35.3979 78.1255 37.337 73.6539 37.337 73.6539M37.337 73.6539C44.7509 75.3814 50.0947 75.8022 59.7152 74.1183L63.5297 79.4867C64.3065 80.1717 64.6876 80.0988 65.3097 79.4867L68.107 76.1634C68.8023 75.5114 69.4779 74.9043 70.1414 74.3355M70.1414 74.3355C70.1414 74.3355 72.4301 79.4869 72.9387 79.4867C73.4473 79.4865 73.8341 79.4864 74.2101 79.2309C74.5862 78.9754 76.1757 73.483 77.374 69.2611M70.1414 74.3355C72.593 72.2336 74.8784 70.6544 77.374 69.2611" stroke="#333333"/>
<path d="M77.0068 40.8861C77.4604 35.9999 83.576 34.077 85.653 40.8861" stroke="#333333" stroke-width="0.8"/>
<path d="M53.3571 16.3446C53.6114 18.6453 53.6114 26.0588 64.292 24.7806C74.9725 23.5024 71.158 11.9349 67.8521 9.44243C64.5462 6.94998 60.647 4.32971 57.1716 2.7959C57.1716 2.7959 53.1029 14.0439 53.3571 16.3446Z" fill="#ECF6FF" stroke="#333333"/>
<path d="M22.2632 34.573L21.9219 33.3423L51.6071 24.9226L51.9485 26.1533L22.2632 34.573Z" stroke="#333333" stroke-width="0.8"/>
</svg>
