<svg width="487" height="144" viewBox="0 0 487 144" fill="none" xmlns="http://www.w3.org/2000/svg">
<mask id="mask0_639_83" style="mask-type:alpha" maskUnits="userSpaceOnUse" x="0" y="0" width="487" height="144">
<rect width="487" height="144" fill="#D9D9D9"/>
</mask>
<g mask="url(#mask0_639_83)">
<path d="M298.841 62.2847L295.216 61.2057C294.689 61.0494 294.199 60.791 293.773 60.4452C293.347 60.0994 292.993 59.6729 292.731 59.1902C292.47 58.7075 292.306 58.178 292.25 57.632C292.193 57.086 292.245 56.5342 292.401 56.0081C292.558 55.4819 292.816 54.9916 293.162 54.5654C293.508 54.1391 293.934 53.7851 294.417 53.5237C294.899 53.2624 295.429 53.0987 295.975 53.0421C296.521 52.9854 297.072 53.037 297.598 53.1937L301.222 54.2707C302.285 54.5868 303.178 55.3118 303.706 56.2865C304.234 57.2611 304.354 58.4055 304.038 59.4683C303.722 60.5308 302.997 61.4243 302.023 61.9524C301.048 62.4806 299.904 62.6001 298.841 62.2847Z" fill="white"/>
<path d="M309.618 77.5957C313.076 77.5957 316.393 76.2218 318.838 73.776C321.284 71.3303 322.657 68.0132 322.657 64.5545V60.4128C322.657 56.9541 321.284 53.637 318.838 51.1913C316.393 48.7456 313.076 47.3716 309.618 47.3716C306.159 47.3716 302.843 48.7456 300.397 51.1913C297.952 53.637 296.578 56.9541 296.578 60.4128V64.5545C296.578 68.0132 297.952 71.3303 300.397 73.776C302.843 76.2218 306.159 77.5957 309.618 77.5957Z" fill="white"/>
<path d="M313.126 55.7799C312.934 56.2805 313.902 57.1198 315.288 57.6541C316.674 58.1883 317.955 58.2136 318.148 57.7129C318.342 57.2123 317.372 56.3731 315.986 55.8409C314.6 55.3087 313.319 55.2793 313.126 55.7799Z" fill="#333333"/>
<path d="M296.328 61.6746C296.013 64.0235 296.118 69.4994 299.062 72.6125L296.013 84.8123L292.648 84.4968L294.646 76.3986L290.334 83.7606L287.074 82.8141L294.923 61.3591C293.117 60.7599 291.071 59.3056 291.596 56.4161C292.043 53.9591 293.718 53.1884 295.277 53.1016C295.557 46.6691 303.058 36.118 316.308 42.6386C319.769 42.6037 326.429 45.9015 325.465 59.3531C326.705 60.0392 327.686 61.2947 327.455 63.4625C327.224 65.6382 326.175 66.7675 325.028 67.3024C324.677 77.206 325.121 84.963 325.457 88.0726H323.354V81.6572L321.356 87.5468L311.156 86.6002L313.574 77.0297C315.853 76.4337 320.809 73.7273 322.408 67.6694C323.086 67.7798 324.09 67.7398 325.028 67.3024C325.116 64.8127 325.254 62.1873 325.457 59.466C325.46 59.4283 325.463 59.3906 325.465 59.3531C324.444 58.7876 323.247 58.6088 322.408 58.6247C322.197 55.9603 319.926 50.0637 312.523 47.792C310.174 49.6501 304.089 53.3661 298.537 53.3661H297.38C296.826 53.1893 296.066 53.0576 295.277 53.1016C293.718 53.1884 292.043 53.9591 291.596 56.4161C291.071 59.3056 293.117 60.7599 294.923 61.3591C295.431 61.5276 295.92 61.6285 296.328 61.6746Z" fill="#408DFF"/>
<path d="M294.923 61.3591C293.117 60.7599 291.071 59.3056 291.596 56.4161C292.043 53.9591 293.718 53.1884 295.277 53.1016M294.923 61.3591C295.431 61.5276 295.92 61.6285 296.328 61.6746C296.013 64.0235 296.118 69.4994 299.062 72.6125L296.013 84.8123L292.648 84.4968L294.646 76.3986L290.334 83.7606L287.074 82.8141L294.923 61.3591ZM295.277 53.1016C296.066 53.0576 296.826 53.1893 297.38 53.3661H298.537C304.089 53.3661 310.174 49.6501 312.523 47.792M295.277 53.1016C295.557 46.6691 303.058 36.118 316.308 42.6386C319.779 42.6036 326.467 45.92 325.457 59.466C324.448 73.0121 325.036 84.1813 325.457 88.0726H323.354V81.6572L321.356 87.5468L311.156 86.6002L313.574 77.0297M313.574 77.0297C315.853 76.4337 320.809 73.7273 322.408 67.6694C323.915 67.9148 327.035 67.417 327.455 63.4625C327.876 59.5081 324.265 58.5896 322.408 58.6247C322.197 55.9603 319.926 50.0637 312.523 47.792M313.574 77.0297C310.945 77.8009 304.72 78.3969 300.85 74.6107M312.523 47.792C310.84 50.5615 306.465 55.9954 302.427 55.5747" stroke="#333333" stroke-width="0.7"/>
<path d="M303.165 55.0626C303.201 55.599 304.427 55.9503 305.914 55.8472C307.401 55.7441 308.568 55.2288 308.532 54.6945C308.497 54.1603 307.27 53.8069 305.781 53.91C304.292 54.013 303.127 54.5284 303.165 55.0626Z" fill="#333333"/>
<path d="M319.003 67.6483L322.999 67.5747C324.17 67.5532 325.285 67.0673 326.098 66.2239C326.911 65.3806 327.355 64.2488 327.334 63.0776C327.312 61.9064 326.826 60.7917 325.983 59.9787C325.14 59.1657 324.008 58.721 322.837 58.7424L318.841 58.8161C317.67 58.8376 316.556 59.3235 315.743 60.1669C314.93 61.0102 314.485 62.142 314.507 63.3132C314.528 64.4844 315.014 65.5991 315.857 66.4121C316.701 67.225 317.832 67.6697 319.003 67.6483Z" fill="white"/>
<path d="M316.162 60.2246C316.226 61.1207 315.742 61.8843 315.078 61.9305C314.413 61.9768 313.816 61.289 313.764 60.3929C313.711 59.4969 314.184 58.7333 314.849 58.687C315.513 58.6408 316.099 59.3223 316.162 60.2246Z" fill="#333333"/>
<path d="M306.798 59.0296C306.861 59.9236 306.378 60.6892 305.713 60.7355C305.049 60.7818 304.452 60.094 304.399 59.1979C304.347 58.3019 304.82 57.5383 305.484 57.4899C306.149 57.4416 306.735 58.1336 306.798 59.0296Z" fill="#333333"/>
<path d="M272.457 88.0119C274.204 93.7301 277.336 98.9281 281.576 103.144C285.815 107.36 291.03 110.463 296.758 112.177C306.258 115.02 302.327 116.256 311.563 110.359C316.28 106.429 319.424 102.105 321.979 96.9948C321.389 94.2433 312.752 83.9712 293.32 83.9712C285.589 83.9712 278.405 85.4625 272.457 88.0119Z" fill="#408DFF"/>
<path d="M301.218 95.3893C299.32 94.8981 297.691 93.6559 296.688 91.9356C295.686 90.2154 295.391 88.1579 295.87 86.2154L300.765 66.3391C301.244 64.3971 302.458 62.7295 304.138 61.703C305.818 60.6764 307.828 60.3748 309.725 60.8646C311.622 61.3554 313.251 62.5972 314.254 64.3171C315.257 66.037 315.551 68.0942 315.073 70.0364L310.18 89.9128C309.942 90.8748 309.522 91.7795 308.944 92.5753C308.365 93.3712 307.639 94.0426 306.807 94.5511C305.974 95.0596 305.052 95.3954 304.094 95.5392C303.135 95.6831 302.157 95.6321 301.218 95.3893Z" fill="white"/>
<path d="M309.683 59.0457C310.559 60.6232 311.66 63.9887 309.053 64.8301" stroke="#333333" stroke-width="0.7"/>
<path d="M305.688 64.5144C305.898 66.0569 306.97 68.7844 309.578 67.354" stroke="#333333" stroke-width="0.7"/>
<path d="M106.914 2.28728V22.3011L57.364 135.713H23.8223L71.6574 27.4475H27.4432V49.1768H0V2.28728H106.914Z" fill="#333333"/>
<path d="M208.781 65.5691C215.388 68.8729 220.407 73.1934 223.837 78.5304C227.394 83.8674 229.173 90.0304 229.173 97.0193C229.173 105.279 226.823 112.522 222.122 118.749C217.421 124.848 210.814 129.613 202.302 133.044C193.789 136.348 183.943 138 172.762 138C161.581 138 151.735 136.348 143.222 133.044C134.837 129.613 128.294 124.848 123.593 118.749C119.019 112.522 116.732 105.279 116.732 97.0193C116.732 90.0304 118.447 83.8674 121.878 78.5304C125.435 73.1934 130.454 68.8729 136.933 65.5691C131.978 62.5193 128.167 58.7072 125.499 54.1326C122.831 49.4309 121.497 44.0939 121.497 38.1215C121.497 30.3702 123.656 23.6354 127.976 17.9171C132.296 12.1989 138.331 7.81491 146.081 4.76519C153.831 1.5884 162.725 0 172.762 0C182.926 0 191.883 1.5884 199.634 4.76519C207.511 7.81491 213.609 12.1989 217.929 17.9171C222.249 23.6354 224.409 30.3702 224.409 38.1215C224.409 44.0939 223.075 49.4309 220.407 54.1326C217.738 58.7072 213.863 62.5193 208.781 65.5691ZM172.762 22.6823C166.536 22.6823 161.518 24.2072 157.706 27.2569C154.022 30.1796 152.18 34.2459 152.18 39.4558C152.18 44.5387 154.022 48.5414 157.706 51.4641C161.391 54.3867 166.409 55.8481 172.762 55.8481C179.115 55.8481 184.197 54.3867 188.008 51.4641C191.82 48.5414 193.726 44.5387 193.726 39.4558C193.726 34.2459 191.82 30.1796 188.008 27.2569C184.197 24.2072 179.115 22.6823 172.762 22.6823ZM172.762 115.318C180.512 115.318 186.611 113.602 191.058 110.171C195.631 106.613 197.918 101.912 197.918 96.0663C197.918 90.221 195.631 85.5829 191.058 82.1519C186.611 78.721 180.512 77.0055 172.762 77.0055C165.139 77.0055 159.104 78.721 154.657 82.1519C150.21 85.5829 147.987 90.221 147.987 96.0663C147.987 102.039 150.21 106.74 154.657 110.171C159.104 113.602 165.139 115.318 172.762 115.318Z" fill="#333333"/>
<path d="M300.479 138C289.426 138 279.579 135.268 270.94 129.804C262.3 124.34 255.503 116.461 250.548 106.169C245.72 95.7486 243.306 83.3591 243.306 69C243.306 54.6409 245.72 42.3149 250.548 32.0221C255.503 21.6022 262.3 13.6602 270.94 8.19613C279.579 2.73204 289.426 0 300.479 0C311.533 0 321.379 2.73204 330.019 8.19613C338.658 13.6602 345.392 21.6022 350.22 32.0221C355.175 42.3149 357.653 54.6409 357.653 69C357.653 83.3591 355.175 95.7486 350.22 106.169C345.392 116.461 338.658 124.34 330.019 129.804C321.379 135.268 311.533 138 300.479 138ZM300.479 111.887C308.61 111.887 314.963 108.392 319.537 101.403C324.238 94.4144 326.588 83.6133 326.588 69C326.588 54.3867 324.238 43.5856 319.537 36.5967C314.963 29.6077 308.61 26.1133 300.479 26.1133C292.475 26.1133 286.122 29.6077 281.421 36.5967C276.847 43.5856 274.561 54.3867 274.561 69C274.561 83.6133 276.847 94.4144 281.421 101.403C286.122 108.392 292.475 111.887 300.479 111.887Z" fill="#333333"/>
<path d="M429.827 138C418.773 138 408.927 135.268 400.287 129.804C391.647 124.34 384.85 116.461 379.895 106.169C375.067 95.7486 372.653 83.3591 372.653 69C372.653 54.6409 375.067 42.3149 379.895 32.0221C384.85 21.6022 391.647 13.6602 400.287 8.19613C408.927 2.73204 418.773 0 429.827 0C440.88 0 450.727 2.73204 459.366 8.19613C468.006 13.6602 474.739 21.6022 479.567 32.0221C484.522 42.3149 487 54.6409 487 69C487 83.3591 484.522 95.7486 479.567 106.169C474.739 116.461 468.006 124.34 459.366 129.804C450.727 135.268 440.88 138 429.827 138ZM429.827 111.887C437.958 111.887 444.311 108.392 448.884 101.403C453.585 94.4144 455.936 83.6133 455.936 69C455.936 54.3867 453.585 43.5856 448.884 36.5967C444.311 29.6077 437.958 26.1133 429.827 26.1133C421.822 26.1133 415.47 29.6077 410.769 36.5967C406.195 43.5856 403.908 54.3867 403.908 69C403.908 83.6133 406.195 94.4144 410.769 101.403C415.47 108.392 421.822 111.887 429.827 111.887Z" fill="#333333"/>
</g>
</svg>
