<svg width="193" height="47" viewBox="0 0 193 47" fill="none" xmlns="http://www.w3.org/2000/svg">
<path fill-rule="evenodd" clip-rule="evenodd" d="M13.9265 0.221883C10.8275 0.669831 8.04551 2.04176 5.57792 4.33886C0.720381 8.86057 -1.21413 16.1797 0.77114 22.5263C2.03172 26.5562 5.62728 29.9301 10.3357 31.5008C14.9684 33.0462 21.3961 33.2693 26.2327 32.0523C28.3735 31.5137 31.1019 30.1554 32.9052 28.7304C34.5111 27.4615 36.3511 25.4068 36.2504 24.9947C36.1806 24.7091 24.5292 14.6662 24.1698 14.5819C23.9824 14.5381 23.9281 15.4778 23.9387 18.5655L23.9525 22.6066H20.3411C16.9609 22.6066 16.6746 22.5773 15.8688 22.1502C13.7331 21.0181 12.5712 18.9644 12.577 16.3325C12.5824 13.9563 13.513 12.0739 15.2569 10.9113C16.4876 10.0907 17.2265 9.96122 20.6822 9.96003L23.8322 9.95883L23.8924 11.0961L23.9525 12.2336L30.6495 17.7763C36.8011 22.8677 37.3743 23.2939 37.6875 23.0125C38.2128 22.5406 38.3269 22.6406 38.1909 23.4531C37.4117 28.1002 34.1883 32.2113 29.2693 34.8306C26.3654 36.377 21.5199 37.6444 18.512 37.6444C17.8206 37.6444 17.2145 37.7115 17.1649 37.7938C17.1154 37.876 19.08 39.9771 21.5307 42.4629L25.9866 46.9828L27.3772 46.6693C29.7033 46.1447 33.2613 44.8411 35.5833 43.6621C41.1123 40.8555 45.507 36.3565 48.4286 30.5127C49.628 28.1136 50.6013 25.5514 50.4562 25.1757C50.3415 24.8792 38.6692 14.5399 38.4491 14.5399C38.3659 14.5399 38.2978 16.1084 38.2978 18.0255C38.2978 20.4782 38.2308 21.5111 38.0717 21.5111C37.8243 21.5111 24.3955 10.4333 24.287 10.1397C24.2477 10.0335 27.1272 9.95883 31.259 9.95883H38.2978V11.1093V12.2597L40.1537 13.8647C41.1743 14.7474 44.0298 17.2324 46.499 19.3867C48.9681 21.541 51.0561 23.3037 51.1386 23.3037C51.4267 23.3037 51.5475 22.0592 51.2897 21.7499C51.1512 21.584 48.2007 18.8855 44.733 15.7533L38.4279 10.0584L45.3274 10.006C49.1224 9.97716 52.3031 9.87817 52.396 9.78595C52.4889 9.69373 51.7329 8.84105 50.7163 7.89098L48.868 6.16372L31.9964 6.2189L15.1247 6.27427L13.9209 6.72799C7.87457 9.00737 5.13071 15.5718 7.83966 21.2765C8.66667 23.0179 10.6413 25.0528 12.3884 25.9643C14.4943 27.0629 15.7663 27.2808 20.0903 27.2842L23.8522 27.2872V28.1835V29.0798L19.7894 29.0768C15.2898 29.0736 13.9973 28.8782 12.0624 27.9086C7.63241 25.6886 4.98725 21.5077 4.99568 16.7388C4.99929 14.6658 5.38611 12.9481 6.22055 11.3013C7.87056 8.04415 10.6895 5.7331 14.3221 4.65934C15.4246 4.33349 16.8341 4.29843 31.0576 4.24366C39.6002 4.21079 46.6237 4.15005 46.6655 4.10842C46.7074 4.06679 45.7713 3.12548 44.5851 2.01646L42.4285 0L28.7766 0.0242984C21.2681 0.0376432 14.5856 0.126477 13.9265 0.221883ZM52.3422 0.153166C52.3422 0.237418 53.2224 1.17594 54.2984 2.23875L56.2546 4.17116L124.57 4.22673L192.886 4.2823L192.943 2.14115L193 0H122.671C83.9901 0 52.3422 0.0689146 52.3422 0.153166ZM58.7625 6.3376C58.7625 6.42743 59.5634 7.27891 60.5423 8.22978L62.3221 9.95883H127.654H192.986V8.06666V6.17448H125.874C88.9628 6.17448 58.7625 6.24797 58.7625 6.3376ZM158.191 18.0353C153.733 18.869 148.723 21.8471 146.035 25.2612C142.16 30.183 141.089 36.9933 143.481 41.5098C144.82 44.0396 147.383 45.9598 150.443 46.7255C152.324 47.1961 156.492 47.0384 158.254 46.4299C160.555 45.6352 162.459 44.1702 164.454 41.6598C164.919 41.0748 165.299 40.5147 165.299 40.4149C165.299 39.9214 164.504 40.3652 163.214 41.5781C160.788 43.8603 157.993 44.9749 155.267 44.7462C152.501 44.5142 150.914 43.5054 149.808 41.2752C149.204 40.0558 149.142 39.7579 149.081 37.7482C148.976 34.3279 149.924 30.4824 151.762 26.8753C153.331 23.7962 155.497 21.5188 158.061 20.2539C159.652 19.4687 159.852 19.4199 161.472 19.4219C163.587 19.4247 164.668 19.8822 165.978 21.3286C166.96 22.4132 167.457 23.611 167.642 25.3452C167.74 26.27 167.833 26.4905 168.124 26.4905C168.323 26.4905 168.526 26.4234 168.574 26.3411C168.824 25.923 170.573 17.9167 170.443 17.7881C170.36 17.7054 170.049 17.7907 169.752 17.9775C168.188 18.9602 168.089 18.9706 165.649 18.4041C162.881 17.7616 160.329 17.6353 158.191 18.0353ZM179.504 30.4145C173.488 37.4036 168.107 43.5468 167.545 44.0661C166.983 44.5855 166.18 45.1565 165.761 45.3352C164.551 45.8499 164.425 45.9248 164.341 46.1733C164.282 46.3486 165.334 46.4082 168.492 46.4082C172.069 46.4082 172.722 46.3632 172.722 46.1172C172.722 45.9481 172.399 45.7395 171.952 45.62C170.863 45.329 170.433 44.7974 170.576 43.9211C170.715 43.0738 171.051 42.586 173.494 39.686L175.382 37.4452H179.901H184.419L184.282 40.0206C184.207 41.4369 184.011 43.0435 183.848 43.5908C183.482 44.8134 182.615 45.6115 181.652 45.6115C180.78 45.6115 180.346 45.7851 180.346 46.1335C180.346 46.3697 181.319 46.4056 186.499 46.3612C192.961 46.306 193.662 46.197 191.885 45.5234C190.144 44.8634 190.164 45.1289 190.773 30.474C191.36 16.3397 191.35 17.8361 190.861 17.7668C190.526 17.7192 188.24 20.2648 179.504 30.4145ZM138.05 18.4603C136.41 19.0361 135.282 20.4301 133.228 24.4211C131.119 28.5177 130.004 29.9558 128.327 30.7429C127.202 31.2711 124.865 31.8286 124.654 31.6191C124.452 31.4183 127.103 22.8432 127.777 21.5171C128.413 20.2672 128.921 19.8189 130.272 19.3152C130.724 19.1469 131.117 18.8569 131.154 18.665C131.217 18.341 130.8 18.3221 124.636 18.3713C118.994 18.4163 118.05 18.4659 118.05 18.717C118.05 18.908 118.356 19.0624 118.928 19.1592C120.799 19.4763 121.273 20.2087 120.864 22.1494C120.314 24.7563 115.106 42.1703 114.512 43.3857C113.848 44.7444 113.14 45.3304 111.93 45.5228C110.54 45.7439 110.325 45.8228 110.325 46.1132C110.325 46.3677 111.22 46.4082 116.834 46.4082C121.393 46.4082 123.384 46.3418 123.481 46.1867C123.651 45.9124 123.212 45.6186 122.625 45.6145C122.383 45.6129 121.939 45.4015 121.639 45.1448C121.207 44.7765 121.098 44.5186 121.121 43.9205C121.154 43.0487 123.708 34.017 124.055 33.5461C124.363 33.1287 125.182 33.484 125.621 34.2255C125.891 34.6812 127.922 40.7685 129.237 45.0637L129.648 46.4082H134.046C138.015 46.4082 138.437 46.3763 138.379 46.0813C138.341 45.8919 137.948 45.6473 137.445 45.4999C135.783 45.0135 135.59 44.6835 133.719 39.1382C132.161 34.5169 131.606 33.4021 130.451 32.572C129.989 32.2397 129.605 31.9159 129.598 31.8523C129.592 31.7886 130.002 31.4404 130.509 31.0785C131.809 30.1518 132.958 28.5076 134.491 25.3805C136.475 21.3312 136.897 21.0739 139.017 22.6227C140.453 23.6727 141.238 23.8677 142.281 23.4347C144.301 22.597 144.315 19.7203 142.306 18.5764C141.364 18.0404 139.399 17.9869 138.05 18.4603ZM62.7083 18.4571C62.3504 18.8124 62.6566 19.0805 63.5556 19.1988C64.0953 19.2699 64.7725 19.5121 65.0604 19.7368C66.0116 20.4797 65.9827 20.6182 62.1773 33.5613C60.8246 38.1623 59.4705 42.4645 59.1682 43.1218C58.4555 44.6715 57.8568 45.192 56.331 45.5882C55.6448 45.7662 55.0461 46.0236 55.0004 46.16C54.9348 46.355 56.4062 46.4082 61.8556 46.4082C67.6975 46.4082 68.7942 46.3638 68.7942 46.1269C68.7942 45.9509 68.4751 45.7931 67.9415 45.7051C65.6986 45.335 65.4173 44.6903 66.2014 41.7152C66.7704 39.5561 72.4166 20.2603 72.535 20.0702C72.7169 19.7778 78.2741 19.9007 79.5361 20.225C81.7689 20.7986 83.0169 22.3034 83.0777 24.4955C83.1009 25.3313 83.2009 25.7679 83.3852 25.8382C83.5355 25.8954 83.7064 25.8946 83.765 25.8362C83.9594 25.6432 85.9957 18.5372 85.8873 18.4296C85.7306 18.2743 62.8652 18.3011 62.7083 18.4571ZM89.2608 18.6206C88.9761 18.961 89.0662 19.01 90.3623 19.2198C92.0871 19.4988 92.4791 20.2479 91.992 22.3321C91.2422 25.539 85.9596 42.6198 85.3831 43.7002C84.6896 45.0006 83.9637 45.4587 82.1864 45.7172C81.5721 45.8067 81.2334 45.9544 81.2334 46.1335C81.2334 46.3685 83.1222 46.4034 93.5196 46.36L105.806 46.3086L107.146 42.9226C107.883 41.0603 108.494 39.3796 108.503 39.188C108.533 38.5608 108.037 38.8183 106.616 40.1682C103.469 43.1568 100.181 44.5917 96.0803 44.7658C94.265 44.8428 93.6125 44.7968 93.0207 44.5507C92.3401 44.2674 92.2683 44.1658 92.2683 43.487C92.2683 42.7842 94.8984 33.4057 95.3243 32.5905C95.5011 32.2519 95.7194 32.2254 97.6667 32.3051C101.307 32.4538 102.498 33.3402 102.5 35.9016C102.501 37.2747 102.741 37.6289 103.109 36.7979C103.388 36.1661 106.112 26.8777 106.112 26.5562C106.112 26.0499 105.518 26.2953 105.187 26.9386C104.279 28.7006 102.821 29.9205 101.067 30.3858C99.6969 30.7493 96.1802 30.9949 96.0203 30.7381C95.9553 30.6334 96.603 28.1783 97.4597 25.2825L99.0176 20.0173L102.314 20.0254C105.2 20.0326 105.723 20.0846 106.513 20.4421C108.371 21.2826 109.3 22.4833 109.623 24.4599C109.725 25.0903 109.846 25.3012 110.078 25.2566C110.304 25.2132 110.639 24.2876 111.254 22.009C111.727 20.2563 112.075 18.7103 112.028 18.5732C111.961 18.378 109.52 18.3243 100.726 18.3243C91.0394 18.3243 89.4747 18.3647 89.2608 18.6206ZM184.892 28.3329C184.824 29.1272 184.707 31.0572 184.634 32.622C184.56 34.1867 184.423 35.5138 184.33 35.5712C184.073 35.7283 177.372 35.754 177.215 35.5983C177.14 35.5238 177.57 34.9005 178.171 34.2134C182.849 28.8583 184.634 26.8889 184.811 26.8889C184.944 26.8889 184.972 27.4013 184.892 28.3329Z" fill="white"/>
</svg>
