<svg width="180" height="59" viewBox="0 0 180 59" fill="none" xmlns="http://www.w3.org/2000/svg">
<path d="M64.5527 9.09962H69.7708V24.5578H64.5527V9.09962ZM64.6138 3.0957H69.7044V7.14555H64.6138V3.0957Z" fill="white"/>
<path d="M73.2617 24.5582V9.1001H78.2716V10.4547L78.2151 11.4176H78.2716C79.2762 9.66649 81.191 8.62804 83.2151 8.74132C86.9354 8.74132 88.7982 10.6719 88.7982 14.5375V24.563H83.5802V15.5005C83.5802 14.1411 83.0062 13.4614 81.8644 13.4614C80.8878 13.4095 79.9443 13.8437 79.3568 14.6272C78.7596 15.4911 78.4609 16.5247 78.4994 17.5725V24.5677L73.2617 24.5582Z" fill="white"/>
<path d="M93.0313 18.8557V13.4229H91.041V9.36838H93.1685V4.92676H98.2304V9.36838H101.487V13.4229H98.2304V18.1619C98.2304 19.4835 99.155 20.1443 101.003 20.1443C101.249 20.1443 101.473 20.1443 101.7 20.1112V24.6142C100.918 24.6708 100.448 24.6991 100.282 24.6991C99.8134 24.6991 99.3443 24.6755 98.8798 24.6236C98.3541 24.5622 97.8277 24.4631 97.3156 24.3357C96.7515 24.213 96.2161 24.0006 95.7183 23.7127C95.2304 23.42 94.7801 23.0754 94.3729 22.679C93.9227 22.2258 93.5856 21.6783 93.3819 21.0741C93.1353 20.3661 93.0169 19.6109 93.0313 18.8557Z" fill="white"/>
<path d="M103.644 16.8168C103.577 14.6739 104.368 12.5923 105.843 11.0348C107.383 9.47241 109.521 8.64165 111.72 8.7408C113.696 8.63699 115.62 9.4016 116.98 10.8318C118.289 12.3139 118.971 14.2444 118.89 16.2174C118.881 16.7602 118.838 17.303 118.772 17.841H108.975C109.098 18.6671 109.549 19.4082 110.227 19.899C110.914 20.3711 111.729 20.6212 112.563 20.6023C114.113 20.5126 115.601 19.9698 116.843 19.0447L118.772 22.6744C117.876 23.4107 116.847 23.9724 115.739 24.3264C114.582 24.7277 113.364 24.94 112.137 24.9495C109.506 24.9495 107.416 24.1471 105.871 22.547C104.397 21.0035 103.596 18.9456 103.644 16.8168ZM109.098 14.8627H113.733C113.753 14.2585 113.544 13.6685 113.15 13.2107C112.758 12.7717 112.189 12.531 111.596 12.5499C110.269 12.5499 109.435 13.324 109.098 14.8769V14.8627Z" fill="white"/>
<path d="M121.6 24.5571V9.09888H126.61V11.7138L126.548 12.6767H126.61C126.946 11.6005 127.6 10.647 128.491 9.94377C129.344 9.22629 130.429 8.82985 131.548 8.83451C131.757 8.83451 131.97 8.85338 132.174 8.89119V13.9935C131.828 13.9181 131.472 13.8897 131.122 13.9039C129.923 13.8237 128.751 14.2815 127.927 15.15C127.149 16.1176 126.766 17.3401 126.842 18.5768V24.576L121.6 24.5571Z" fill="white"/>
<path d="M134.445 24.5582V9.1001H139.455V10.4547L139.393 11.4176H139.455C140.46 9.66649 142.375 8.62804 144.399 8.74132C148.109 8.74132 149.967 10.6719 149.972 14.5375V24.563H144.754V15.5005C144.754 14.1411 144.181 13.4614 143.038 13.4614C142.062 13.4095 141.119 13.8485 140.531 14.6272C139.934 15.4911 139.635 16.5247 139.673 17.5725V24.5677L134.445 24.5582Z" fill="white"/>
<path d="M152.432 16.8168C152.361 14.6739 153.157 12.5923 154.636 11.0348C156.177 9.47241 158.314 8.63699 160.513 8.7408C162.49 8.63699 164.409 9.4016 165.769 10.8318C167.082 12.3139 167.769 14.2397 167.683 16.2174C167.674 16.7602 167.631 17.303 167.565 17.841H157.769C157.901 18.6718 158.366 19.4129 159.053 19.899C159.735 20.3711 160.551 20.6165 161.385 20.6023C162.935 20.5126 164.428 19.9698 165.669 19.0447L167.598 22.6744C166.702 23.4107 165.674 23.9724 164.565 24.3264C163.409 24.7277 162.191 24.94 160.963 24.9495C158.333 24.9495 156.243 24.1471 154.698 22.547C153.21 21.0129 152.394 18.9503 152.432 16.8168ZM157.892 14.8627H162.532C162.551 14.2585 162.343 13.6685 161.944 13.2107C161.556 12.7717 160.987 12.531 160.399 12.5499C159.072 12.5499 158.238 13.324 157.892 14.8769V14.8627Z" fill="white"/>
<path d="M171.298 18.8557V13.4229H169.312V9.36838H171.469V4.92676H176.535V9.36838H179.786V13.4229H176.535V18.1619C176.535 19.4835 177.46 20.1443 179.303 20.1443C179.545 20.1443 179.777 20.1443 180 20.1112V24.6142C179.218 24.6708 178.749 24.6991 178.583 24.6991C177.583 24.7038 176.583 24.5858 175.616 24.3357C175.052 24.213 174.516 24.0006 174.018 23.7127C173.531 23.42 173.08 23.0755 172.678 22.679C172.227 22.2258 171.886 21.6783 171.682 21.0741C171.426 20.3661 171.298 19.6156 171.298 18.8557Z" fill="white"/>
<path d="M66.7456 51.0511C67.2102 51.3957 67.7645 51.5987 68.3429 51.627C69.438 51.7214 70.4614 51.0841 70.8505 50.0599L71.1492 49.3425L64.5518 34.1816H70.4568L72.751 41.2947L73.3196 43.6973H73.3815C73.5806 42.7155 73.751 41.9509 73.8928 41.3892L75.8461 34.1816H81.5475L75.1915 51.2918C74.291 54.0956 71.6605 55.9789 68.7079 55.9411C68.0963 55.9411 67.4854 55.8515 66.8972 55.672C66.4281 55.5446 65.9733 55.3653 65.542 55.134L65.0917 54.8602L66.7456 51.0511Z" fill="white"/>
<path d="M83.5195 55.6398V34.1824H88.2164V34.9707L88.1591 35.9619H88.2164C89.3303 34.5176 91.0936 33.7152 92.9224 33.8284C94.8704 33.7576 96.743 34.5837 98.0032 36.0658C99.335 37.7225 100.013 39.8088 99.9135 41.9281C100.013 44.071 99.2785 46.1714 97.8659 47.7856C96.5484 49.2441 94.6524 50.056 92.6811 50.0088C91.2308 50.0183 89.8228 49.4943 88.733 48.5362H88.6712C88.7187 48.9751 88.7376 49.4188 88.733 49.8578V55.6493L83.5195 55.6398ZM88.5762 42.0177C88.5528 42.9476 88.8326 43.8539 89.3726 44.6137C89.8892 45.336 90.7331 45.7466 91.6192 45.7135C92.4533 45.7277 93.2542 45.3642 93.7852 44.7224C94.4013 43.9624 94.7143 42.9995 94.6623 42.0225C94.7098 41.0312 94.4111 40.0542 93.8183 39.2612C93.2972 38.5816 92.4774 38.1945 91.6192 38.2134C90.7896 38.1992 89.994 38.5485 89.4442 39.1763C88.8039 39.9834 88.491 41.003 88.5671 42.0272H88.5762V42.0177Z" fill="white"/>
<path d="M104.244 47.7613C102.576 46.298 101.657 44.1645 101.737 41.9556C101.661 39.7325 102.58 37.5895 104.244 36.1027C105.96 34.564 108.202 33.7474 110.51 33.8182C112.814 33.7568 115.051 34.5687 116.775 36.0885C118.463 37.566 119.397 39.7183 119.326 41.9508C119.401 44.1645 118.486 46.2933 116.818 47.7565C113.179 50.7349 107.932 50.7349 104.292 47.7565H104.244V47.7613ZM106.989 41.9556C106.941 42.9562 107.311 43.9333 108.007 44.6555C109.397 46.0243 111.629 46.0243 113.017 44.6555C113.719 43.9333 114.088 42.9562 114.046 41.9556C114.088 40.936 113.719 39.9401 113.017 39.1991C111.676 37.8208 109.467 37.7878 108.084 39.1235C108.055 39.1471 108.032 39.1755 108.007 39.1991C107.311 39.9401 106.941 40.936 106.989 41.9556Z" fill="white"/>
<path d="M121.934 49.6398V34.1816H127.152V39.6144H128.621L131.692 34.1816H137.389L132.835 41.5355V41.5968L138.015 49.6398H132.062L128.778 43.971H127.152V49.6398H121.934Z" fill="white"/>
<path d="M24.4416 56.5032L2.41256 43.8911V19.04L30.2946 3.06264V27.8996L32.7072 26.5167V1.505C32.7072 0.348613 31.4515 -0.373603 30.4462 0.202261L1.81526 16.6139C0.691564 17.2558 0 18.4453 0 19.7386V44.2404C0 44.8871 0.346167 45.4818 0.909525 45.8028L23.5411 58.7593C24.1 59.0802 24.7878 59.0802 25.3466 58.7593L54.0447 42.3241C54.5138 42.0551 54.8026 41.5595 54.8026 41.0214V39.1663L24.4416 56.5032Z" fill="white"/>
<path d="M20.4396 20.8806L14.5723 28.8811V19.356L20.4396 20.8806Z" fill="white"/>
<path d="M6.70996 46.3594V54.9026L8.36911 54.2749L10.3925 56.9984V48.4692L6.70996 46.3594Z" fill="white"/>
<path d="M2.43526 43.8766L24.4598 50.3525L51.6307 34.833V34.8282L53.3607 33.889H53.3562L53.3607 33.8843L50.062 32.86L50.7445 32.4683L53.5364 33.3368L54.8871 33.7238L53.6647 34.3893L52.3373 35.1115L54.7966 36.2585L52.2378 37.6981L54.7966 39.166L54.1813 39.5153L53.584 39.166L53.0244 38.8451L51.636 38.0379L24.4598 53.3593L2.41113 43.8908L2.43526 43.8766Z" fill="white"/>
<path d="M2.41113 43.8912L32.7065 26.5166L54.7974 30.1558L24.4402 47.4925L2.41113 43.8912Z" fill="white"/>
</svg>
