<svg width="244" height="144" viewBox="0 0 244 144" fill="none" xmlns="http://www.w3.org/2000/svg">
<path d="M92.167 66.1727C98.7538 69.507 103.757 73.8672 107.177 79.2534C110.724 84.6395 112.498 90.8592 112.498 97.9125C112.498 106.248 110.154 113.558 105.467 119.842C100.781 125.997 94.1937 130.807 85.7068 134.269C77.2199 137.603 67.403 139.27 56.256 139.27C45.1091 139.27 35.2921 137.603 26.8052 134.269C18.445 130.807 11.9215 125.997 7.23471 119.842C2.67459 113.558 0.394531 106.248 0.394531 97.9125C0.394531 90.8592 2.10458 84.6395 5.52467 79.2534C9.07143 73.8672 14.0749 69.507 20.5351 66.1727C15.5949 63.0949 11.7948 59.2477 9.13476 54.631C6.47469 49.886 5.14466 44.4999 5.14466 38.4725C5.14466 30.6498 7.29805 23.853 11.6048 18.0821C15.9116 12.3112 21.9284 7.88686 29.6553 4.80906C37.3822 1.60302 46.2491 0 56.256 0C66.3896 0 75.3199 1.60302 83.0467 4.80906C90.9003 7.88686 96.9804 12.3112 101.287 18.0821C105.594 23.853 107.747 30.6498 107.747 38.4725C107.747 44.4999 106.417 49.886 103.757 54.631C101.097 59.2477 97.2338 63.0949 92.167 66.1727ZM56.256 22.8911C50.0492 22.8911 45.0457 24.43 41.2456 27.5078C37.5722 30.4574 35.7355 34.5611 35.7355 39.819C35.7355 44.9487 37.5722 48.9883 41.2456 51.9379C44.9191 54.8874 49.9225 56.3622 56.256 56.3622C62.5895 56.3622 67.6563 54.8874 71.4564 51.9379C75.2565 48.9883 77.1566 44.9487 77.1566 39.819C77.1566 34.5611 75.2565 30.4574 71.4564 27.5078C67.6563 24.43 62.5895 22.8911 56.256 22.8911ZM56.256 116.379C63.9829 116.379 70.0631 114.648 74.4965 111.186C79.0566 107.595 81.3367 102.85 81.3367 96.9507C81.3367 91.0516 79.0566 86.3708 74.4965 82.9082C70.0631 79.4457 63.9829 77.7145 56.256 77.7145C48.6558 77.7145 42.639 79.4457 38.2055 82.9082C33.7721 86.3708 31.5554 91.0516 31.5554 96.9507C31.5554 102.978 33.7721 107.723 38.2055 111.186C42.639 114.648 48.6558 116.379 56.256 116.379Z" fill="#333333"/>
<path d="M183.589 139.27C172.569 139.27 162.752 136.513 154.138 130.999C145.525 125.484 138.748 117.534 133.808 107.146C128.994 96.6301 126.588 84.1266 126.588 69.6352C126.588 55.1439 128.994 42.7045 133.808 32.3169C138.748 21.8011 145.525 13.786 154.138 8.27159C162.752 2.75719 172.569 0 183.589 0C194.609 0 204.426 2.75719 213.04 8.27159C221.653 13.786 228.367 21.8011 233.18 32.3169C238.121 42.7045 240.591 55.1439 240.591 69.6352C240.591 84.1266 238.121 96.6301 233.18 107.146C228.367 117.534 221.653 125.484 213.04 130.999C204.426 136.513 194.609 139.27 183.589 139.27ZM183.589 112.917C191.696 112.917 198.029 109.39 202.59 102.337C207.276 95.2836 209.62 84.383 209.62 69.6352C209.62 54.8874 207.276 43.9869 202.59 36.9336C198.029 29.8803 191.696 26.3537 183.589 26.3537C175.609 26.3537 169.275 29.8803 164.589 36.9336C160.028 43.9869 157.748 54.8874 157.748 69.6352C157.748 84.383 160.028 95.2836 164.589 102.337C169.275 109.39 175.609 112.917 183.589 112.917Z" fill="#333333"/>
<path d="M174.261 111.152C165.407 106.693 161.623 99.1291 159.48 89.0253C159.399 88.6428 159.552 88.2477 159.868 88.0172L181.749 72.0548C182.094 71.803 182.562 71.7983 182.912 72.0433L190.948 77.6643L217.816 97.5422C217.943 97.6364 218.046 97.7596 218.117 97.9015L220.243 102.184C220.347 102.395 220.522 102.562 220.737 102.656L225.629 104.798C225.814 104.879 225.969 105.014 226.076 105.185L230.755 112.683C231.004 113.081 231.496 113.253 231.939 113.096L238.654 110.708C239.055 110.566 239.502 110.692 239.768 111.024L243.061 115.12C243.269 115.38 243.335 115.727 243.236 116.045L239.49 128.03C239.386 128.36 239.119 128.614 238.784 128.7L213.424 135.202C213.142 135.274 212.906 135.466 212.777 135.726L210.102 141.114C209.845 141.632 209.204 141.825 208.704 141.535L202.083 137.695C201.854 137.562 201.58 137.525 201.324 137.594L193.971 139.554C193.721 139.621 193.507 139.781 193.373 140.002L191.24 143.519C191.058 143.817 190.734 144 190.385 144H185.707C185.074 144 184.6 143.42 184.727 142.8L189.9 117.473C190.001 116.981 189.721 116.491 189.247 116.327L174.261 111.152Z" fill="#408DFF"/>
<path d="M157.421 69.9459L168.198 87.7962L179.454 69.946C181.37 50.6482 154.069 53.5427 157.421 69.9459Z" fill="white" stroke="#333333" stroke-width="0.7"/>
<path d="M196.793 99.5325L211.531 124.051L226.924 99.5325C229.545 73.0262 192.208 77.0018 196.793 99.5325Z" fill="white" stroke="#333333" stroke-width="0.7"/>
<path d="M172.638 67.5334C172.638 70.0069 170.647 72.0078 168.198 72.0078C165.748 72.0078 163.758 70.0069 163.758 67.5334C163.758 65.0599 165.748 63.059 168.198 63.059C170.647 63.059 172.638 65.0599 172.638 67.5334Z" fill="#408DFF" stroke="#333333" stroke-width="0.7"/>
<path d="M217.607 96.3103C217.607 99.7164 214.866 102.473 211.49 102.473C208.115 102.473 205.374 99.7164 205.374 96.3103C205.374 92.9042 208.115 90.1474 211.49 90.1474C214.866 90.1474 217.607 92.9042 217.607 96.3103Z" fill="#408DFF" stroke="#333333" stroke-width="0.7"/>
</svg>
