<svg width="99" height="80" viewBox="0 0 99 80" fill="none" xmlns="http://www.w3.org/2000/svg">
<ellipse cx="32.163" cy="20.9033" rx="30.0487" ry="8.90333" fill="#408DFF"/>
<path d="M1 37.4472V31.4461C1 29.9872 2.51668 29.0166 3.86661 29.57C27.0054 39.056 49.667 34.5029 60.7484 30.0143C62.1264 29.4561 63.6943 30.4431 63.6943 31.9298V37.4408C63.6943 38.2155 63.2438 38.9249 62.5366 39.2411C38.5243 49.9765 13.0941 44.0383 2.14459 39.2328C1.43821 38.9228 1 38.2186 1 37.4472Z" stroke="black"/>
<path d="M1.37012 53.77V47.7689C1.37012 46.31 2.8868 45.3394 4.23673 45.8928C27.3755 55.3788 50.0371 50.8257 61.1185 46.3371C62.4965 45.7789 64.0644 46.7658 64.0644 48.2526V53.7636C64.0644 54.5383 63.614 55.2477 62.9067 55.5639C38.8944 66.2993 13.4642 60.3611 2.51471 55.5556C1.80832 55.2456 1.37012 54.5414 1.37012 53.77Z" stroke="black"/>
<path d="M1.74316 70.0928V64.0917C1.74316 62.6327 3.25985 61.6622 4.60977 62.2156C27.7486 71.7016 50.4101 67.1485 61.4915 62.6599C62.8696 62.1017 64.4375 63.0886 64.4375 64.5754V70.0863C64.4375 70.8611 63.987 71.5705 63.2797 71.8867C39.2675 82.6221 13.8373 76.6839 2.88775 71.8784C2.18137 71.5684 1.74316 70.8642 1.74316 70.0928Z" stroke="black"/>
<path d="M56.2061 24.9451C54.9567 24.9451 53.7642 24.7383 52.6284 24.3246C51.5089 23.895 50.6328 23.3461 50 22.6778L50.5598 21.7709C51.1601 22.3914 51.9632 22.9006 52.9692 23.2983C53.9913 23.6802 55.0622 23.8711 56.1817 23.8711C57.8042 23.8711 59.0292 23.5688 59.8567 22.9642C60.6842 22.3596 61.0979 21.572 61.0979 20.6014C61.0979 19.8536 60.8789 19.257 60.4408 18.8115C60.0027 18.366 59.4592 18.0239 58.8102 17.7852C58.1612 17.5465 57.285 17.2999 56.1817 17.0453C54.9324 16.743 53.9264 16.4487 53.1639 16.1623C52.4175 15.8759 51.7766 15.4383 51.2412 14.8496C50.722 14.245 50.4624 13.4415 50.4624 12.4391C50.4624 11.6277 50.6814 10.8878 51.1195 10.2196C51.5576 9.5354 52.2228 8.99443 53.1152 8.59666C54.0238 8.19889 55.1514 8 56.4981 8C57.4392 8 58.364 8.13524 59.2726 8.40573C60.1812 8.67621 60.9681 9.04216 61.6333 9.50358L61.1709 10.4821C60.4895 10.0207 59.735 9.67064 58.9075 9.43198C58.0963 9.19332 57.2931 9.07399 56.4981 9.07399C54.9243 9.07399 53.7317 9.38425 52.9205 10.0048C52.1092 10.6253 51.7036 11.4288 51.7036 12.4153C51.7036 13.1631 51.9227 13.7597 52.3607 14.2052C52.7988 14.6508 53.3423 14.9928 53.9913 15.2315C54.6403 15.4702 55.5246 15.7247 56.6441 15.9952C57.8935 16.2975 58.8913 16.5919 59.6376 16.8783C60.384 17.1647 61.0168 17.6022 61.536 18.1909C62.0714 18.7637 62.3391 19.5434 62.3391 20.5298C62.3391 21.3413 62.112 22.0811 61.6577 22.7494C61.2196 23.4177 60.5381 23.9507 59.6133 24.3484C58.6885 24.7462 57.5527 24.9451 56.2061 24.9451Z" fill="black"/>
<path d="M83.4002 26.1146C82.8972 26.7351 82.305 27.2045 81.6235 27.5227C80.9421 27.8409 80.1957 28 79.3845 28C78.4434 28 77.5267 27.7613 76.6343 27.284C75.7582 26.8067 74.7928 26.027 73.7382 24.9451C72.067 24.9451 70.5581 24.5792 69.2114 23.8473C67.881 23.0994 66.8344 22.0811 66.0719 20.7924C65.3093 19.5036 64.928 18.0636 64.928 16.4726C64.928 14.8815 65.3093 13.4415 66.0719 12.1527C66.8507 10.864 67.9134 9.85362 69.2601 9.12172C70.6068 8.37391 72.1157 8 73.7869 8C75.458 8 76.967 8.36595 78.3136 9.09785C79.6603 9.82975 80.7149 10.8401 81.4775 12.1289C82.2563 13.4177 82.6457 14.8656 82.6457 16.4726C82.6457 17.9045 82.3293 19.2172 81.6965 20.4105C81.08 21.5879 80.2201 22.5664 79.1168 23.3461C78.0135 24.1098 76.756 24.603 75.3445 24.8258C76.7398 26.2578 78.0865 26.9737 79.3845 26.9737C80.6987 26.9737 81.8182 26.4407 82.7431 25.3747L83.4002 26.1146ZM66.1692 16.4726C66.1692 17.8409 66.5018 19.0899 67.1671 20.2196C67.8323 21.3333 68.7409 22.2164 69.8929 22.8687C71.0611 23.5052 72.3591 23.8234 73.7869 23.8234C75.2147 23.8234 76.5045 23.5052 77.6565 22.8687C78.8085 22.2164 79.7171 21.3333 80.3823 20.2196C81.0475 19.0899 81.3802 17.8409 81.3802 16.4726C81.3802 15.1042 81.0475 13.8632 80.3823 12.7494C79.7171 11.6197 78.8085 10.7367 77.6565 10.1002C76.5045 9.44789 75.2147 9.12172 73.7869 9.12172C72.3591 9.12172 71.0611 9.44789 69.8929 10.1002C68.7409 10.7367 67.8323 11.6197 67.1671 12.7494C66.5018 13.8632 66.1692 15.1042 66.1692 16.4726Z" fill="black"/>
<path d="M86.9508 8.11933H88.192V23.7279H98V24.8258H86.9508V8.11933Z" fill="black"/>
</svg>
