<svg width="98" height="80" viewBox="0 0 98 80" fill="none" xmlns="http://www.w3.org/2000/svg">
<g clip-path="url(#clip0_425_1233)">
<path d="M56.2274 14.2846L65.6952 68.2621C65.886 69.3501 65.1587 70.3867 64.0708 70.5776L15.0979 79.1675C14.0099 79.3583 12.9733 78.6311 12.7824 77.5431L0.746896 8.92613C0.556066 7.83817 1.28333 6.8015 2.37129 6.61067L37.1342 0.5132M56.2274 14.2846L37.1342 0.5132M56.2274 14.2846L42.0174 16.7771C40.9295 16.9679 39.8928 16.2406 39.702 15.1527L37.1342 0.5132M13.6337 18.1513L29.8137 15.3133" stroke="#333333" stroke-linecap="round"/>
<path d="M16.0342 31.6046L45.5736 26.4233" stroke="#333333" stroke-linecap="round"/>
<path d="M17.2178 38.3533L46.7572 33.1721" stroke="#333333" stroke-linecap="round"/>
<path d="M18.4023 45.102L47.9418 39.9207" stroke="#333333" stroke-linecap="round"/>
<path d="M33.5963 57.7976L43.8955 63.8519L56.368 45" stroke="#408DFF" stroke-width="5" stroke-linecap="round"/>
<path d="M79.9146 20.0632L84.6861 15.3982C85.4759 14.626 86.7422 14.6403 87.5144 15.4301L91.3907 19.3949C92.1629 20.1847 92.1486 21.451 91.3588 22.2232L86.5873 26.8882M79.9146 20.0632L47.3397 51.9112C47.146 52.1006 46.9911 52.3262 46.8909 52.578C46.6052 53.295 46.1876 54.4858 46.1821 55.729M79.9146 20.0632L86.5873 26.8882M77.4797 46.1075L90.3134 33.5602C91.1032 32.788 91.1175 31.5218 90.3453 30.732L86.5873 26.8882M86.5873 26.8882L53.8817 58.8639C53.7734 58.9698 53.6538 59.0635 53.5234 59.1405C52.6658 59.6471 51.6325 60.1414 50.5073 60.1529M46.1821 55.729C46.1776 56.7411 46.4463 57.788 47.2816 58.6424C48.3907 59.7769 49.4868 60.1634 50.5073 60.1529M46.1821 55.729L45.0335 58.4616C44.3693 60.0416 45.8703 61.6705 47.4993 61.1374L50.5073 60.1529" stroke="#333333"/>
</g>
<defs>
<clipPath id="clip0_425_1233">
<rect width="98" height="80" fill="white"/>
</clipPath>
</defs>
</svg>
