<svg width="98" height="80" viewBox="0 0 98 80" fill="none" xmlns="http://www.w3.org/2000/svg">
<g clip-path="url(#clip0_425_1265)">
<path d="M70.5306 66.3334L68.4196 52.5941L67.49 47.1894C67.3887 46.6008 67.8226 46.0553 68.4188 46.0214L87.5367 44.9368C88.3987 44.8879 88.9134 45.8809 88.3766 46.557L84.09 51.9561C83.7466 52.3886 83.8189 53.0177 84.2514 53.3611L97.4306 63.8246C97.8632 64.168 97.9354 64.7971 97.592 65.2296L93.088 70.9025C92.7446 71.3351 92.1156 71.4073 91.6831 71.0639L78.5038 60.6004C78.0713 60.257 77.4423 60.3292 77.0989 60.7617L72.3021 66.8034C71.7595 67.4868 70.6631 67.196 70.5306 66.3334Z" fill="#408DFF"/>
<path d="M15.6165 36.3047L27.8319 32.9813L32.6576 31.7607C33.2366 31.6142 33.559 30.9962 33.3478 30.4376L27.1867 14.1395C26.8814 13.3319 25.7651 13.2647 25.3651 14.0298L22.531 19.4514C22.2752 19.9409 21.671 20.1302 21.1816 19.8744L7.54751 12.7474C7.05807 12.4915 6.45389 12.6809 6.19803 13.1703L3.1707 18.9616C2.91485 19.4511 3.10422 20.0553 3.59367 20.3111L17.2277 27.4381C17.7172 27.694 17.9065 28.2982 17.6507 28.7876L14.4678 34.8765C14.0635 35.6499 14.7745 36.5338 15.6165 36.3047Z" fill="#408DFF"/>
<path d="M12.3039 59.8429C11.8097 59.584 11.5 59.0722 11.5 58.5142V21.1157C11.5 20.5578 11.8097 20.046 12.3039 19.787L48.3 0.929085C48.7359 0.700711 49.2561 0.700688 49.6921 0.929024L85.696 19.7871C86.1903 20.046 86.5 20.5579 86.5 21.1159V58.5141C86.5 59.0721 86.1903 59.584 85.696 59.8429L49.6921 78.7009C49.2561 78.9292 48.7359 78.9292 48.3 78.7008L12.3039 59.8429Z" stroke="#333333"/>
<path d="M48.884 58.9632C35.2341 50.9592 31.0784 44.3793 31.8689 27.7293C31.8689 27.7293 38.9096 22.2279 48.884 22.2279C58.8583 22.2279 66.0946 27.7293 66.0946 27.7293C66.5531 44.7583 62.5282 51.4287 48.884 58.9632Z" stroke="#333333"/>
<path d="M48.454 52C39.315 46.5529 36.5327 42.075 37.062 30.744C37.062 30.744 41.7759 27 48.454 27C55.132 27 59.9769 30.744 59.9769 30.744C60.2839 42.333 57.5891 46.8725 48.454 52Z" stroke="#333333"/>
</g>
<defs>
<clipPath id="clip0_425_1265">
<rect width="98" height="80" fill="white"/>
</clipPath>
</defs>
</svg>
