<svg width="98" height="80" viewBox="0 0 98 80" fill="none" xmlns="http://www.w3.org/2000/svg">
<circle cx="17.5" cy="62.5" r="17.5" fill="#408DFF"/>
<path d="M26.191 32.9084H22.8583C21.7538 32.9084 20.8583 33.8039 20.8583 34.9085V56.3944C20.8583 57.4989 21.7538 58.3944 22.8583 58.3944H51.4379C52.5425 58.3944 53.4379 57.4989 53.4379 56.3944V34.9084C53.4379 33.8039 52.5425 32.9084 51.4379 32.9084H47.809M26.191 32.9084V25.3169C26.191 22.8768 29.1446 17.9965 37.1436 17.9965C40.0973 17.9965 47.809 19.3521 47.809 25.3169V32.9084M26.191 32.9084H30.9312M47.809 32.9084H43.3651M43.3651 32.9084V26.4014C43.3651 24.5035 41.5786 22.0634 37.1436 22.0634C35.0609 22.0634 30.9312 22.8768 30.9312 26.4014V32.9084M43.3651 32.9084H30.9312M1.00897 47.2782V4C1.00897 2.89543 1.9044 2 3.00897 2H13.8219C14.9265 2 15.8219 2.89543 15.8219 4V5.69366C15.8219 6.79823 16.7174 7.69366 17.8219 7.69366H28.9312C30.0357 7.69366 30.9312 6.79823 30.9312 5.69366V4C30.9312 2.89543 31.8266 2 32.9312 2H41.3651C42.4697 2 43.3651 2.89543 43.3651 4V5.69366C43.3651 6.79823 44.2605 7.69366 45.3651 7.69366H57.3721C58.4766 7.69366 59.3721 6.79823 59.3721 5.69366V4C59.3721 2.89543 60.2675 2 61.3721 2H71C72.1046 2 73 2.89543 73 4V47.0975C73 47.2177 72.9893 47.3382 72.9668 47.4563C69.8323 63.9296 49.0569 75.024 38.4029 78.7734C37.9731 78.9247 37.5017 78.9111 37.0748 78.7516C7.54207 67.7191 0.714926 53.1984 1.00897 47.2782ZM7.52668 47.2782V15.3873C7.52668 14.2828 8.42211 13.3873 9.52668 13.3873H63.8898C64.9943 13.3873 65.8898 14.2828 65.8898 15.3873V47.0849C65.8898 47.2134 65.8778 47.3417 65.8516 47.4676C63.4014 59.2207 46.943 68.1687 38.3835 71.4406C37.9679 71.5995 37.5066 71.6038 37.0839 71.4647C14.626 64.0746 8.01568 52.2903 7.52668 47.2782Z" stroke="#333333" stroke-linecap="round"/>
<path d="M42.3585 46.1467C42.3585 48.9895 40.0561 51.2933 37.2168 51.2933C34.3776 51.2933 32.0752 48.9895 32.0752 46.1467C32.0752 43.3038 34.3776 41 37.2168 41C40.0561 41 42.3585 43.3038 42.3585 46.1467Z" stroke="#333333"/>
</svg>
