<svg width="98" height="80" viewBox="0 0 98 80" fill="none" xmlns="http://www.w3.org/2000/svg">
<g clip-path="url(#clip0_425_1180)">
<path d="M8.38574 79.2986V20C8.38574 18.8954 9.28117 18 10.3857 18H22.6651C23.2762 18 23.8538 18.2794 24.2332 18.7586L28.9441 24.7093C29.3234 25.1884 29.901 25.4679 30.5122 25.4679H84.487C85.5916 25.4679 86.487 26.3633 86.487 27.4679V32.6245M8.38574 79.2986H86.4245C87.3682 79.2986 88.1836 78.6389 88.3805 77.7159L97.4843 35.0418C97.7498 33.7973 96.8008 32.6245 95.5283 32.6245H86.487M8.38574 79.2986L24.7123 33.9471C24.998 33.1536 25.7507 32.6245 26.5941 32.6245H86.487" stroke="#333333" stroke-linecap="round"/>
<path d="M35.1457 54.4058C23.9438 58.1395 30.1671 70.5861 36.3904 70.5861H67.1953C80.264 69.9636 78.0859 52.2275 67.1953 53.7833C68.1286 44.4486 57.5491 43.5151 53.8154 46.9379C47.9033 36.9807 30.4782 46.0044 35.1457 54.4058Z" fill="#408DFF"/>
</g>
<defs>
<clipPath id="clip0_425_1180">
<rect width="98" height="80" fill="white"/>
</clipPath>
</defs>
</svg>
