<svg width="960" height="210" viewBox="0 0 960 210" fill="none" xmlns="http://www.w3.org/2000/svg">
<path d="M297.445 124.782H550.485C550.485 124.782 537.208 100.569 492.693 116.971C492.693 116.971 476.292 93.0916 459.891 113.231C459.891 113.231 466.139 96.6638 449.739 94.3208C449.739 94.3208 432.557 94.3208 423.969 109.552C423.969 109.552 420.846 88.8533 406.788 83.3883C406.788 83.3883 389.606 76.3588 383.359 92.7608C383.359 92.7608 393.511 49.8027 370.863 46.6781C370.863 46.6781 336.499 45.1161 337.28 78.7017C337.28 78.7017 316.975 48.2407 302.917 52.9266C302.917 52.9266 281.05 59.9561 297.451 100.571C297.451 100.571 286.517 84.1693 281.83 93.5418C281.827 93.5398 279.484 113.847 297.445 124.782Z" fill="#408DFF"/>
<path d="M87.1429 4.31626V205.684H40.3974V41.7131H0V4.31626H87.1429Z" fill="#333333"/>
<path d="M260.448 99.822C270.451 104.808 278.05 111.329 283.244 119.383C288.63 127.438 291.323 136.739 291.323 147.287C291.323 159.753 287.764 170.684 280.647 180.081C273.529 189.287 263.526 196.478 250.637 201.656C237.749 206.643 222.84 209.136 205.912 209.136C188.983 209.136 174.075 206.643 161.186 201.656C148.49 196.478 138.583 189.287 131.465 180.081C124.54 170.684 121.077 159.753 121.077 147.287C121.077 136.739 123.674 127.438 128.868 119.383C134.254 111.329 141.853 104.808 151.664 99.822C144.161 95.2193 138.39 89.466 134.351 82.562C130.311 75.4661 128.291 67.4114 128.291 58.3979C128.291 46.6994 131.561 36.5351 138.102 27.905C144.642 19.275 153.78 12.6586 165.514 8.05595C177.249 3.26149 190.714 0.864258 205.912 0.864258C221.301 0.864258 234.863 3.26149 246.597 8.05595C258.524 12.6586 267.758 19.275 274.299 27.905C280.839 36.5351 284.109 46.6994 284.109 58.3979C284.109 67.4114 282.089 75.4661 278.05 82.562C274.01 89.466 268.143 95.2193 260.448 99.822ZM205.912 35.0967C196.486 35.0967 188.887 37.3981 183.116 42.0008C177.537 46.4117 174.748 52.5486 174.748 60.4115C174.748 68.0827 177.537 74.1237 183.116 78.5346C188.695 82.9455 196.293 85.151 205.912 85.151C215.53 85.151 223.225 82.9455 228.996 78.5346C234.767 74.1237 237.652 68.0827 237.652 60.4115C237.652 52.5486 234.767 46.4117 228.996 42.0008C223.225 37.3981 215.53 35.0967 205.912 35.0967ZM205.912 174.903C217.646 174.903 226.88 172.314 233.613 167.136C240.538 161.767 244.001 154.671 244.001 145.849C244.001 137.027 240.538 130.027 233.613 124.849C226.88 119.671 217.646 117.082 205.912 117.082C194.369 117.082 185.232 119.671 178.499 124.849C171.766 130.027 168.4 137.027 168.4 145.849C168.4 154.863 171.766 161.958 178.499 167.136C185.232 172.314 194.369 174.903 205.912 174.903Z" fill="#333333"/>
<path d="M481.006 209.136C464.27 209.136 449.361 205.013 436.28 196.766C423.199 188.52 412.907 176.629 405.405 161.095C398.095 145.369 394.44 126.671 394.44 105C394.44 83.3291 398.095 64.7265 405.405 49.1925C412.907 33.4666 423.199 21.4805 436.28 13.234C449.361 4.9875 464.27 0.864258 481.006 0.864258C497.742 0.864258 512.651 4.9875 525.732 13.234C538.813 21.4805 549.008 33.4666 556.318 49.1925C563.82 64.7265 567.572 83.3291 567.572 105C567.572 126.671 563.82 145.369 556.318 161.095C549.008 176.629 538.813 188.52 525.732 196.766C512.651 205.013 497.742 209.136 481.006 209.136ZM481.006 169.725C493.317 169.725 502.936 164.451 509.861 153.904C516.979 143.356 520.538 127.055 520.538 105C520.538 82.9455 516.979 66.6443 509.861 56.0965C502.936 45.5487 493.317 40.2748 481.006 40.2748C468.887 40.2748 459.268 45.5487 452.151 56.0965C445.225 66.6443 441.763 82.9455 441.763 105C441.763 127.055 445.225 143.356 452.151 153.904C459.268 164.451 468.887 169.725 481.006 169.725Z" fill="#333333"/>
<path d="M676.85 209.136C660.114 209.136 645.205 205.013 632.124 196.766C619.043 188.52 608.751 176.629 601.249 161.095C593.939 145.369 590.284 126.671 590.284 105C590.284 83.3291 593.939 64.7265 601.249 49.1925C608.751 33.4666 619.043 21.4805 632.124 13.234C645.205 4.9875 660.114 0.864258 676.85 0.864258C693.586 0.864258 708.494 4.9875 721.575 13.234C734.656 21.4805 744.852 33.4666 752.162 49.1925C759.664 64.7265 763.415 83.3291 763.415 105C763.415 126.671 759.664 145.369 752.162 161.095C744.852 176.629 734.656 188.52 721.575 196.766C708.494 205.013 693.586 209.136 676.85 209.136ZM676.85 169.725C689.161 169.725 698.78 164.451 705.705 153.904C712.823 143.356 716.381 127.055 716.381 105C716.381 82.9455 712.823 66.6443 705.705 56.0965C698.78 45.5487 689.161 40.2748 676.85 40.2748C664.731 40.2748 655.112 45.5487 647.994 56.0965C641.069 66.6443 637.607 82.9455 637.607 105C637.607 127.055 641.069 143.356 647.994 153.904C655.112 164.451 664.731 169.725 676.85 169.725Z" fill="#333333"/>
<path d="M872.693 209.136C855.957 209.136 841.049 205.013 827.968 196.766C814.887 188.52 804.595 176.629 797.093 161.095C789.783 145.369 786.128 126.671 786.128 105C786.128 83.3291 789.783 64.7265 797.093 49.1925C804.595 33.4666 814.887 21.4805 827.968 13.234C841.049 4.9875 855.957 0.864258 872.693 0.864258C889.43 0.864258 904.338 4.9875 917.419 13.234C930.5 21.4805 940.696 33.4666 948.006 49.1925C955.508 64.7265 959.259 83.3291 959.259 105C959.259 126.671 955.508 145.369 948.006 161.095C940.696 176.629 930.5 188.52 917.419 196.766C904.338 205.013 889.43 209.136 872.693 209.136ZM872.693 169.725C885.005 169.725 894.624 164.451 901.549 153.904C908.666 143.356 912.225 127.055 912.225 105C912.225 82.9455 908.666 66.6443 901.549 56.0965C894.624 45.5487 885.005 40.2748 872.693 40.2748C860.574 40.2748 850.956 45.5487 843.838 56.0965C836.913 66.6443 833.45 82.9455 833.45 105C833.45 127.055 836.913 143.356 843.838 153.904C850.956 164.451 860.574 169.725 872.693 169.725Z" fill="#333333"/>
<path d="M706.914 154.974H925.589C925.589 154.974 922.466 135.448 902.941 142.478C902.941 142.478 904.503 125.728 886.54 128.245C886.54 128.245 870.139 127.984 867.797 141.481C867.797 141.481 863.891 106.658 836.558 105.432C836.558 105.432 804.537 106.549 805.318 143.259C805.318 143.259 795.946 128.853 787.356 131.369C787.356 131.369 781.108 136.229 780.327 145.602C780.327 145.602 757.678 135.448 737.373 150.288C737.372 150.288 714.724 138.572 706.914 154.974Z" fill="#408DFF"/>
<mask id="mask0_425_1410" style="mask-type:alpha" maskUnits="userSpaceOnUse" x="781" y="0" width="117" height="210">
<rect x="781.234" width="115.802" height="210" fill="#D9D9D9"/>
</mask>
<g mask="url(#mask0_425_1410)">
<path d="M872.657 209.136C855.824 209.136 840.829 205.013 827.671 196.766C814.514 188.52 804.163 176.629 796.617 161.095C789.264 145.369 785.588 126.671 785.588 105C785.588 83.3291 789.264 64.7265 796.617 49.1925C804.163 33.4666 814.514 21.4805 827.671 13.234C840.829 4.9875 855.824 0.864258 872.657 0.864258C889.491 0.864258 904.486 4.9875 917.643 13.234C930.8 21.4805 941.055 33.4666 948.408 49.1925C955.954 64.7265 959.727 83.3291 959.727 105C959.727 126.671 955.954 145.369 948.408 161.095C941.055 176.629 930.8 188.52 917.643 196.766C904.486 205.013 889.491 209.136 872.657 209.136ZM872.657 169.725C885.041 169.725 894.715 164.451 901.681 153.904C908.84 143.356 912.419 127.055 912.419 105C912.419 82.9455 908.84 66.6443 901.681 56.0965C894.715 45.5487 885.041 40.2748 872.657 40.2748C860.468 40.2748 850.793 45.5487 843.634 56.0965C836.669 66.6443 833.186 82.9455 833.186 105C833.186 127.055 836.669 143.356 843.634 153.904C850.793 164.451 860.468 169.725 872.657 169.725Z" fill="#333333"/>
</g>
</svg>
