<svg width="32" height="32" viewBox="0 0 32 32" fill="none" xmlns="http://www.w3.org/2000/svg">
<g clip-path="url(#clip0_769_975)">
<path d="M30.8427 3.64546L30.8406 3.64758C30.8951 3.59465 30.9641 3.55886 31.0389 3.54468C31.1143 3.53039 31.1923 3.53873 31.2629 3.56866C31.3336 3.59858 31.3938 3.64874 31.436 3.7128C31.4782 3.77685 31.5004 3.85193 31.5 3.92858V3.93152V11.5542C31.5 11.7754 31.333 11.9426 31.1113 11.9426H23.4863C23.1421 11.9426 22.9567 11.529 23.2177 11.2681L25.9726 8.51401L26.2934 8.19333L26.0054 7.84292C23.6247 4.94641 20.0386 3.05838 16.0034 3.05838C8.01653 3.05838 1.69382 10.3413 3.33787 18.6168C4.33759 23.7234 8.51443 27.824 13.6581 28.7309C16.8848 29.3174 20.2139 28.6597 22.9749 26.8905C25.7364 25.1209 27.7244 22.3709 28.5385 19.1943C28.6748 18.6613 29.1788 18.2731 29.7605 18.2731C30.601 18.2731 31.2187 19.0606 31.0179 19.8527C30.0704 23.5462 27.794 26.7608 24.6242 28.8816C21.4542 31.0026 17.6133 31.8807 13.8363 31.348C10.0592 30.8153 6.61123 28.9091 4.15199 25.9943C1.69275 23.0794 0.394889 19.3605 0.506663 15.5489C0.747558 7.15463 7.99997 0.298238 16.4174 0.504537C18.5874 0.56111 20.721 1.07473 22.6788 2.01184C24.6368 2.949 26.3749 4.28861 27.7797 5.94313L28.1307 6.3566L28.5143 5.97312L30.8392 3.64897" stroke="white"/>
<path d="M15.9844 7.72412V15.4483L23.4251 22.069" stroke="white" stroke-width="5" stroke-linecap="round"/>
</g>
<defs>
<clipPath id="clip0_769_975">
<rect width="32" height="32" fill="white"/>
</clipPath>
</defs>
</svg>
