<svg width="33" height="27" viewBox="0 0 33 27" fill="none" xmlns="http://www.w3.org/2000/svg">
<ellipse cx="12.8386" cy="3.3682" rx="11.4148" ry="3.3682" fill="white"/>
<path d="M23.8369 10.5384C15.2929 14.1049 6.38221 12.276 2.03725 10.5533C1.39336 10.298 1 9.66334 1 8.9707C1 7.66389 2.35998 6.78903 3.59632 7.21236C10.9691 9.73688 18.042 8.71178 22.2965 7.3232C23.4851 6.93527 24.816 7.78432 24.816 9.03461C24.816 9.68771 24.4396 10.2868 23.8369 10.5384Z" stroke="white"/>
<path d="M23.9775 16.7132C15.4335 20.2797 6.52284 18.4508 2.17787 16.7281C1.53399 16.4728 1.14062 15.8381 1.14062 15.1455C1.14062 13.8387 2.50061 12.9638 3.73695 13.3872C11.1097 15.9117 18.1827 14.8866 22.4372 13.498C23.6257 13.1101 24.9566 13.9591 24.9566 15.2094C24.9566 15.8625 24.5802 16.4616 23.9775 16.7132Z" stroke="white"/>
<path d="M13.9457 21.098C10.839 21.163 7.39081 20.7663 3.87447 19.5621C2.63815 19.1387 1.2793 20.014 1.2793 21.3208V21.3208C1.2793 22.0134 1.67574 22.6494 2.31966 22.9046C4.91658 23.9338 9.14246 25.0003 13.9457 24.9315" stroke="white"/>
<path d="M19.8987 23.7834C19.8987 24.345 19.6731 24.7829 19.2219 25.0971C18.7707 25.4113 18.1584 25.5685 17.3849 25.5685C16.5469 25.5685 15.9024 25.471 15.4512 25.2761V24.5603C15.7412 24.6708 16.0571 24.7581 16.3987 24.8221C16.7403 24.8862 17.0787 24.9182 17.4139 24.9182C17.9618 24.9182 18.3743 24.8251 18.6515 24.6388C18.9286 24.4497 19.0672 24.1879 19.0672 23.8532C19.0672 23.6321 19.0172 23.4517 18.9173 23.3121C18.8207 23.1695 18.6563 23.0386 18.4242 22.9193C18.1954 22.8 17.8457 22.6647 17.3752 22.5134C16.7177 22.301 16.2472 22.0493 15.9636 21.7583C15.6832 21.4674 15.543 21.0877 15.543 20.6192C15.543 20.1275 15.7477 19.7361 16.157 19.4452C16.5663 19.1542 17.1077 19.0087 17.7813 19.0087C18.4839 19.0087 19.13 19.1251 19.7198 19.3579L19.4636 20.0038C18.8803 19.7827 18.3131 19.6721 17.762 19.6721C17.3269 19.6721 16.9869 19.7565 16.7419 19.9253C16.497 20.094 16.3745 20.3282 16.3745 20.6279C16.3745 20.8491 16.4196 21.0309 16.5099 21.1735C16.6001 21.3131 16.7516 21.4426 16.9643 21.5619C17.1802 21.6783 17.509 21.8078 17.9505 21.9504C18.6917 22.1889 19.201 22.445 19.4781 22.7185C19.7585 22.992 19.8987 23.347 19.8987 23.7834Z" fill="white"/>
<path d="M27.4788 22.2821C27.4788 23.0997 27.2967 23.7791 26.9326 24.3202C26.5684 24.8614 26.0543 25.228 25.3904 25.4201L27.0727 27H25.8787L24.5009 25.5597L24.235 25.5685C23.1941 25.5685 22.39 25.2819 21.8227 24.7087C21.2587 24.1326 20.9767 23.3208 20.9767 22.2733C20.9767 21.2346 21.2603 20.4301 21.8276 19.8598C22.3948 19.2866 23.2005 19 24.2447 19C25.2599 19 26.0527 19.291 26.6232 19.8729C27.1936 20.4548 27.4788 21.2579 27.4788 22.2821ZM21.8469 22.2821C21.8469 23.1462 22.0499 23.8023 22.456 24.2504C22.8653 24.6956 23.4583 24.9182 24.235 24.9182C25.0182 24.9182 25.6096 24.6956 26.0092 24.2504C26.4088 23.8052 26.6087 23.1491 26.6087 22.2821C26.6087 21.4237 26.4088 20.7734 26.0092 20.3312C25.6128 19.886 25.0246 19.6634 24.2447 19.6634C23.4616 19.6634 22.8653 19.8874 22.456 20.3355C22.0499 20.7807 21.8469 21.4295 21.8469 22.2821Z" fill="white"/>
<path d="M29.0596 25.4812V19.1004H29.8815V24.8091H32.9996V25.4812H29.0596Z" fill="white"/>
</svg>
