<svg width="34" height="28" viewBox="0 0 34 28" fill="none" xmlns="http://www.w3.org/2000/svg">
<path d="M1.46484 3.41064L1.05211 24.4201C6.76745 23.7313 12.1969 24.8728 16.9985 27.3087C21.892 25.0632 27.362 24.1359 33.0459 25.0486L33.4587 4.03917" stroke="white" stroke-width="0.7" stroke-miterlimit="10" stroke-linecap="round"/>
<path d="M1.46484 3.41064L1.0747 23.27C1.06277 23.8775 1.5911 24.3537 2.19685 24.3061C7.32243 23.9034 12.1961 24.9641 16.5662 27.0937C16.8404 27.2274 17.1597 27.2336 17.439 27.1109C21.8891 25.1546 26.8007 24.2861 31.9066 24.8898C32.51 24.9611 33.0566 24.506 33.0685 23.8985L33.4587 4.03917" stroke="white" stroke-miterlimit="10" stroke-linecap="round"/>
<path d="M22.2491 6.09746C21.7965 6.17609 21.4798 6.5767 21.4751 7.03622L21.4725 7.28517C21.4655 7.96214 22.1215 8.45257 22.7893 8.34268C23.4613 8.23209 24.1506 8.18582 24.8425 8.2058C25.6524 8.22221 26.3873 8.27508 27.0624 8.35247C27.6722 8.42238 28.2249 7.96176 28.2314 7.34804L28.2344 7.06559C28.2397 6.56913 27.8801 6.14118 27.3873 6.08073C26.5522 5.9783 25.7104 5.91832 24.867 5.90124C23.9849 5.88255 23.1059 5.94861 22.2491 6.09746ZM22.1933 11.0924C21.7411 11.1712 21.4249 11.5716 21.4202 12.0308L21.4176 12.2805C21.4107 12.9575 22.0666 13.4479 22.7344 13.3381C23.4065 13.2275 24.0957 13.1812 24.7876 13.2012C25.5975 13.2176 26.3324 13.2705 27.0075 13.3478C27.6173 13.4177 28.17 12.9571 28.1765 12.3434L28.1795 12.061C28.1848 11.5645 27.8253 11.1366 27.3324 11.0761C26.4974 10.9737 25.6556 10.9137 24.8122 10.8966C23.9297 10.8771 23.0503 10.943 22.1933 11.0924ZM22.1411 16.0867C21.6889 16.1656 21.3727 16.566 21.368 17.0251L21.3654 17.2749C21.3585 17.9519 22.0144 18.4423 22.6822 18.3324C23.3542 18.2218 24.0435 18.1756 24.7354 18.1955C25.5453 18.2119 26.2802 18.2648 26.9553 18.3422C27.5651 18.4121 28.1178 17.9515 28.1243 17.3378L28.1273 17.0553C28.1326 16.5589 27.7731 16.1309 27.2802 16.0705C26.4451 15.968 25.6033 15.908 24.7599 15.891C23.8774 15.8714 22.9981 15.9373 22.1411 16.0867ZM6.80937 15.645C6.30831 15.6853 5.93069 16.1076 5.92535 16.6103L5.92229 16.8991C5.91585 17.5056 6.44651 17.9774 7.05128 17.9326C7.79418 17.8775 8.54177 17.8587 9.28985 17.8766C9.97564 17.8855 10.6574 17.9593 11.321 18.0954C11.991 18.2329 12.6694 17.757 12.6764 17.0732L12.6788 16.8341C12.6835 16.3809 12.3835 15.9769 11.9405 15.8806C11.0831 15.6941 10.2013 15.5903 9.31441 15.5721C8.47707 15.5539 7.64036 15.5783 6.80937 15.645ZM6.91646 5.65529C6.4154 5.69555 6.03778 6.11786 6.03244 6.62061L6.02937 6.91019C6.02293 7.51643 6.55313 7.98811 7.15763 7.9434C7.9008 7.88843 8.64861 7.86952 9.39694 7.88688C10.0833 7.89582 10.7656 7.96969 11.4296 8.10602C12.0991 8.24346 12.7772 7.76839 12.785 7.08512L12.7877 6.84473C12.7929 6.39088 12.4925 5.98615 12.0488 5.88994C11.1909 5.70391 10.3087 5.60044 9.4215 5.58232C8.58416 5.56412 7.74745 5.58852 6.91646 5.65529ZM6.86136 10.6505C6.3604 10.6908 5.98291 11.1131 5.97758 11.6158L5.97451 11.9048C5.96807 12.5113 6.49874 12.983 7.1035 12.9382C7.8464 12.8831 8.59399 12.8644 9.34207 12.8823C10.0284 12.8912 10.7107 12.9651 11.3748 13.1014C12.0443 13.2388 12.7223 12.7638 12.7301 12.0805L12.7329 11.8396C12.738 11.386 12.438 10.9814 11.9946 10.885C11.1374 10.6987 10.2559 10.5949 9.36928 10.5767C8.53096 10.5587 7.69328 10.5834 6.86136 10.6505Z" fill="white"/>
<path d="M31.0404 1.09135L30.6347 21.7427C26.0585 21.7831 21.931 22.6833 18.3312 24.4342L18.7315 4.06211C22.2311 2.14422 26.3579 1.14011 31.0404 1.09135Z" stroke="white"/>
<path d="M15.7742 24.3843C12.246 22.4928 8.15687 21.4313 3.5861 21.2117L3.99181 0.559761C8.66878 0.792388 12.7525 1.9578 16.1746 4.01169L15.7742 24.3843Z" stroke="white"/>
</svg>
