<svg width="32" height="32" viewBox="0 0 32 32" fill="none" xmlns="http://www.w3.org/2000/svg">
<path d="M27.25 11.5522C26.3259 8.90757 24.6023 6.61576 22.3179 4.99417C20.0335 3.37258 17.3014 2.50146 14.5 2.50146C11.6986 2.50146 8.96649 3.37258 6.68211 4.99417C4.39773 6.61576 2.67412 8.90757 1.75001 11.5522M27.25 11.5522C27.736 12.9442 28 14.4412 28 15.9997C28.0017 17.5143 27.7481 19.0183 27.25 20.4487M27.25 11.5522H1.75001M1.75001 11.5522C1.25201 12.982 0.998467 14.4856 1.00001 15.9997C0.998384 17.5143 1.25193 19.0183 1.75001 20.4487M1.75001 20.4487C2.67412 23.0933 4.39773 25.3851 6.68211 27.0067C8.96649 28.6283 11.6986 29.4994 14.5 29.4994C17.3014 29.4994 20.0335 28.6283 22.3179 27.0067C24.6023 25.3851 26.3259 23.0933 27.25 20.4487M1.75001 20.4487H27.25" stroke="white" stroke-linecap="round" stroke-linejoin="round"/>
<path d="M14.5014 29.5C21.9564 22.045 21.9564 9.95499 14.5014 2.5C7.04641 9.95499 7.04641 22.045 14.5014 29.5Z" stroke="white" stroke-linecap="round" stroke-linejoin="round"/>
<path d="M20.8485 31.2388L16 15L31.0303 22.1642L25.697 24.0746L30.0606 28.8507L27.1515 31.2388L23.2727 26.4627L20.8485 31.2388Z" fill="white"/>
</svg>
