<svg width="34" height="34" viewBox="0 0 34 34" fill="none" xmlns="http://www.w3.org/2000/svg">
<path d="M2.60679 23.6087C0.303351 18.6664 0.231817 12.1194 4.00806 7.14936C8.83217 0.800184 18.6865 -2.40556 27.621 4.51453C27.8876 4.72107 28.2706 4.70557 28.5092 4.46714V4.46714C28.9078 4.06878 29.5901 4.32433 29.6289 4.88654L29.8166 7.60568C29.884 8.58231 29.1099 9.41164 28.1309 9.41164H24.9162C24.4509 9.41164 24.2368 8.83264 24.5903 8.52994V8.52994C24.8121 8.33996 24.8269 8.00205 24.6023 7.81536C21.9789 5.63475 15.1969 3.3294 9.15349 8.58899" stroke="white" stroke-width="0.8"/>
<path d="M32.2037 10.6455C34.6735 19.489 31.0109 26.2226 26.4407 29.5664C20.5424 33.882 11.9547 33.453 7.34952 29.3831C7.07638 29.1417 6.67097 29.1084 6.37692 29.3238V29.3238C5.88876 29.6815 5.20117 29.3329 5.20117 28.7277V26.0633C5.20117 25.1556 5.93704 24.4197 6.84477 24.4197H9.63107C10.1796 24.4197 10.4355 25.0993 10.0232 25.4611V25.4611C9.77137 25.682 9.74935 26.0672 9.99893 26.2906C13.0108 28.9869 20.3564 31.101 26.0289 25.0419" stroke="white" stroke-width="0.8"/>
<path d="M23.6928 11.5483L16.1289 22.9388" stroke="white" stroke-width="3" stroke-linecap="round"/>
<path d="M22.1617 25.4696L25.3024 18.6707H21.1719V17.876H26.2145V18.5668L23.1153 25.4696H22.1617Z" fill="white"/>
<path d="M12.2563 17.8759H7.30469V17.0216L9.28842 14.7097C9.89298 14.0008 10.2914 13.495 10.4838 13.1923C10.6762 12.8897 10.8204 12.595 10.9166 12.3082C11.0128 12.0215 11.0609 11.7128 11.0609 11.3823C11.0609 10.9163 10.939 10.5479 10.6951 10.2771C10.4512 10.0023 10.1128 9.86489 9.68001 9.86489C9.36742 9.86489 9.07029 9.92463 8.78862 10.0441C8.51038 10.1636 8.19951 10.3806 7.85601 10.6953L7.40259 10.0202C8.09646 9.35114 8.85217 9.0166 9.66971 9.0166C10.3773 9.0166 10.9321 9.22768 11.334 9.64983C11.7359 10.068 11.9368 10.6315 11.9368 11.3404C11.9368 11.894 11.8029 12.4416 11.5349 12.9833C11.267 13.5249 10.7655 14.2099 10.0304 15.0383L8.38157 16.9081V16.9559H12.2563V17.8759Z" fill="white"/>
<path d="M18.6506 15.8686H17.5325V17.8759H16.7132V15.8686H13.0498V15.0024L16.6256 9.09426H17.5325V14.9666H18.6506V15.8686ZM16.7132 14.9666V12.0633C16.7132 11.4938 16.7304 10.8506 16.7648 10.1337H16.7235C16.5587 10.516 16.4041 10.8327 16.2598 11.0836L13.9051 14.9666H16.7132Z" fill="white"/>
</svg>
