<svg width="32" height="32" viewBox="0 0 32 32" fill="none" xmlns="http://www.w3.org/2000/svg">
<path d="M6.73084 22.1453L14.5799 10.0388L16.3944 6.92568C16.686 6.42528 17.3405 6.27653 17.8198 6.60171L20.9748 8.74221L28.3794 13.5429C28.8428 13.8433 28.9749 14.4626 28.6744 14.926L18.885 30.0253C18.5846 30.4887 17.9653 30.6208 17.5019 30.3204L7.02592 23.5284C6.56251 23.228 6.4304 22.6088 6.73084 22.1453Z" stroke="white" stroke-width="3" stroke-linecap="round"/>
<path d="M1.44531 6.43042L1.09537 6.0733L0.945312 6.22034V6.43042H1.44531ZM7.49485 0.502441V0.00244141H7.2907L7.1449 0.145318L7.49485 0.502441ZM10.9441 5.93042C10.668 5.93042 10.4441 6.15428 10.4441 6.43042C10.4441 6.70657 10.668 6.93042 10.9441 6.93042V5.93042ZM16.4595 6.93042C16.7357 6.93042 16.9595 6.70657 16.9595 6.43042C16.9595 6.15428 16.7357 5.93042 16.4595 5.93042V6.93042ZM0.945312 6.43042V25.4574H1.94531V6.43042H0.945312ZM2.44531 26.9574H19.2479V25.9574H2.44531V26.9574ZM20.7479 25.4574V1.50244H19.7479V25.4574H20.7479ZM19.2479 0.00244141H7.49485V1.00244H19.2479V0.00244141ZM7.1449 0.145318L1.09537 6.0733L1.79526 6.78755L7.84479 0.859564L7.1449 0.145318ZM1.44531 6.93042H6.49484V5.93042H1.44531V6.93042ZM7.99485 5.43042V0.502441H6.99485V5.43042H7.99485ZM10.9441 6.93042H16.4595V5.93042H10.9441V6.93042ZM6.49484 6.93042C7.32327 6.93042 7.99485 6.25885 7.99485 5.43042H6.99485C6.99485 5.70657 6.77099 5.93042 6.49484 5.93042V6.93042ZM20.7479 1.50244C20.7479 0.674013 20.0763 0.00244141 19.2479 0.00244141V1.00244C19.5241 1.00244 19.7479 1.2263 19.7479 1.50244H20.7479ZM19.2479 26.9574C20.0763 26.9574 20.7479 26.2858 20.7479 25.4574H19.7479C19.7479 25.7335 19.5241 25.9574 19.2479 25.9574V26.9574ZM0.945312 25.4574C0.945312 26.2858 1.61689 26.9574 2.44531 26.9574V25.9574C2.16917 25.9574 1.94531 25.7335 1.94531 25.4574H0.945312Z" fill="white"/>
<path d="M5.12109 10.6367C4.84495 10.6367 4.62109 10.8606 4.62109 11.1367C4.62109 11.4129 4.84495 11.6367 5.12109 11.6367V10.6367ZM16.7648 11.6367C17.0409 11.6367 17.2648 11.4129 17.2648 11.1367C17.2648 10.8606 17.0409 10.6367 16.7648 10.6367V11.6367ZM5.12109 11.6367H16.7648V10.6367H5.12109V11.6367Z" fill="white"/>
<path d="M5.12109 16.1523C4.84495 16.1523 4.62109 16.3762 4.62109 16.6523C4.62109 16.9285 4.84495 17.1523 5.12109 17.1523V16.1523ZM16.7648 17.1523C17.0409 17.1523 17.2648 16.9285 17.2648 16.6523C17.2648 16.3762 17.0409 16.1523 16.7648 16.1523V17.1523ZM5.12109 17.1523H16.7648V16.1523H5.12109V17.1523Z" fill="white"/>
<path d="M5.12109 21.0552C4.84495 21.0552 4.62109 21.279 4.62109 21.5552C4.62109 21.8313 4.84495 22.0552 5.12109 22.0552V21.0552ZM16.7648 22.0552C17.0409 22.0552 17.2648 21.8313 17.2648 21.5552C17.2648 21.279 17.0409 21.0552 16.7648 21.0552V22.0552ZM5.12109 22.0552H16.7648V21.0552H5.12109V22.0552Z" fill="white"/>
</svg>
