<svg width="34" height="33" viewBox="0 0 34 33" fill="none" xmlns="http://www.w3.org/2000/svg">
<path d="M28.013 12.372C30.874 12.9963 33 15.2616 33 17.9531C33 20.6447 30.874 22.91 28.0131 23.5342V25.0789C28.0131 27.7769 25.5022 29.9717 22.4159 29.9717H21.218C20.8102 31.1594 19.5895 32 18.1082 32H15.8918C14.0967 32 12.6364 30.7234 12.6364 29.1543C12.6364 27.5246 14.0663 26.248 15.8918 26.248H18.1082C19.5272 26.248 20.7362 27.046 21.1808 28.1553H22.4158C24.3563 28.1553 25.9351 26.7752 25.9351 25.0789V23.7051H24.2035C23.6297 23.7051 23.1645 23.2984 23.1645 22.7969V13.1094C23.1645 12.6078 23.6297 12.2012 24.2035 12.2012H25.9351V10.6558C25.9351 6.33315 21.9191 2.81641 16.9827 2.81641C12.0463 2.81641 8.0303 6.33315 8.0303 10.6558V12.2012H9.79654C10.3703 12.2012 10.8355 12.6078 10.8355 13.1094V22.7969C10.8355 23.2984 10.3703 23.7051 9.79654 23.7051H7.58009C3.95183 23.7051 1 21.1248 1 17.9531C1 15.2724 3.10881 13.0143 5.95238 12.3794V10.6558C5.95238 5.33158 10.9005 1 16.9827 1C23.0648 1 28.013 5.33158 28.013 10.6558V12.372Z" stroke="white"/>
<path d="M8.99914 22.1587V14.3433C7.16192 14.0642 3.43237 14.3992 3.2119 17.9719C2.99144 21.5446 6.9782 22.2517 8.99914 22.1587Z" fill="white"/>
<path d="M25.252 22.0747V14.3425C26.9991 14.0664 30.5457 14.3978 30.7553 17.9325C30.965 21.4672 27.1738 22.1668 25.252 22.0747Z" fill="white"/>
</svg>
