<svg width="34" height="26" viewBox="0 0 34 26" fill="none" xmlns="http://www.w3.org/2000/svg">
<path d="M16.6562 10.5781V12.5781H11.8594V22H9.4375V10.5781H16.6562Z" fill="white"/>
<path d="M20.8438 14.9609H21.7969C23.2865 14.9609 24.4375 15.263 25.25 15.8672C26.0625 16.4714 26.4688 17.3255 26.4688 18.4297C26.4688 20.8099 24.8958 22 21.75 22H18.4219V10.5781H25.6406V12.5781H20.8438V14.9609ZM20.8438 20.0156H21.6562C22.474 20.0156 23.0729 19.8854 23.4531 19.625C23.8333 19.3594 24.0234 18.9609 24.0234 18.4297C24.0234 17.9036 23.8307 17.526 23.4453 17.2969C23.0599 17.0625 22.3984 16.9453 21.4609 16.9453H20.8438V20.0156Z" fill="white"/>
<path d="M33 24V7.45455C33 6.90226 32.5523 6.45455 32 6.45455H16.4594C16.1099 6.45455 15.7858 6.27212 15.6045 5.97337L12.8782 1.48118C12.6969 1.18243 12.3728 1 12.0233 1H2C1.44772 1 1 1.44772 1 2V24C1 24.5523 1.44772 25 2 25H32C32.5523 25 33 24.5523 33 24Z" stroke="white"/>
</svg>
