<svg width="10" height="15" viewBox="0 0 10 15" fill="none" xmlns="http://www.w3.org/2000/svg">
<path d="M4.05959 9.77083H6.87151C6.87151 7.5625 10 7.1875 10 3.85417C10 1.39583 8.06331 0 5.27002 0C2.75605 0 1.00559 1.08333 0 2.79167L2.25326 4.27083C2.84916 3.3125 3.76164 2.72917 4.95344 2.72917C6.16387 2.72917 6.96462 3.375 6.96462 4.39583C6.96462 6.20833 4.05959 6.85417 4.05959 9.77083ZM5.47486 15C6.51769 15 7.26257 14.1458 7.26257 13.1042C7.26257 12.0417 6.51769 11.25 5.47486 11.25C4.43203 11.25 3.68715 12.0417 3.68715 13.1042C3.68715 14.1458 4.43203 15 5.47486 15Z" fill="#333333"/>
</svg>
