<svg width="10" height="14" viewBox="0 0 10 14" fill="none" xmlns="http://www.w3.org/2000/svg">
<path d="M4.05959 9.11944H6.87151C6.87151 7.05833 10 6.70833 10 3.59722C10 1.30278 8.06331 0 5.27002 0C2.75605 0 1.00559 1.01111 0 2.60556L2.25326 3.98611C2.84916 3.09167 3.76164 2.54722 4.95344 2.54722C6.16387 2.54722 6.96462 3.15 6.96462 4.10278C6.96462 5.79444 4.05959 6.39722 4.05959 9.11944ZM5.47486 14C6.51769 14 7.26257 13.2028 7.26257 12.2306C7.26257 11.2389 6.51769 10.5 5.47486 10.5C4.43203 10.5 3.68715 11.2389 3.68715 12.2306C3.68715 13.2028 4.43203 14 5.47486 14Z" fill="white"/>
</svg>
