<svg width="23" height="22" viewBox="0 0 23 22" fill="none" xmlns="http://www.w3.org/2000/svg">
<path d="M22.3546 20.8494L16.1451 14.704C17.6373 12.9312 18.3814 10.6572 18.2226 8.35518C18.0638 6.05317 17.0144 3.90036 15.2926 2.3446C13.5709 0.788838 11.3094 -0.0500981 8.97852 0.00231604C6.64768 0.0547302 4.42699 0.994459 2.77841 2.62601C1.12984 4.25756 0.180301 6.45532 0.12734 8.76209C0.0743792 11.0689 0.922069 13.307 2.49407 15.011C4.06606 16.715 6.24133 17.7536 8.56736 17.9107C10.8934 18.0678 13.1911 17.3314 14.9825 15.8547L21.1919 22L22.3546 20.8494ZM1.79886 8.98021C1.79886 7.53173 2.23287 6.11578 3.04599 4.91141C3.85912 3.70705 5.01485 2.76836 6.36704 2.21405C7.71922 1.65974 9.20712 1.51471 10.6426 1.7973C12.0781 2.07988 13.3966 2.77739 14.4315 3.80162C15.4665 4.82584 16.1712 6.13079 16.4568 7.55144C16.7423 8.97208 16.5958 10.4446 16.0357 11.7828C15.4756 13.1211 14.5271 14.2649 13.3102 15.0696C12.0932 15.8743 10.6625 16.3038 9.19891 16.3038C7.23696 16.3017 5.356 15.5294 3.96869 14.1564C2.58138 12.7834 1.80104 10.9219 1.79886 8.98021Z" fill="#408DFF"/>
</svg>
