<svg width="60" height="60" viewBox="0 0 60 60" fill="none" xmlns="http://www.w3.org/2000/svg">
<path d="M60 30C60 46.5685 46.5685 60 30 60C13.4315 60 0 46.5685 0 30C0 13.4315 13.4315 0 30 0C46.5685 0 60 13.4315 60 30Z" fill="#408DFF"/>
<path fill-rule="evenodd" clip-rule="evenodd" d="M30 58.6046C45.7979 58.6046 58.6046 45.7979 58.6046 30C58.6046 14.2021 45.7979 1.39535 30 1.39535C14.2021 1.39535 1.39535 14.2021 1.39535 30C1.39535 45.7979 14.2021 58.6046 30 58.6046ZM30 60C46.5685 60 60 46.5685 60 30C60 13.4315 46.5685 0 30 0C13.4315 0 0 13.4315 0 30C0 46.5685 13.4315 60 30 60Z" fill="#408DFF"/>
<path fill-rule="evenodd" clip-rule="evenodd" d="M29.0814 44.4551L15.7615 31.1352C14.9441 30.3178 14.9441 28.9926 15.7615 28.1752L29.0814 14.8553C29.8988 14.0379 31.224 14.0379 32.0414 14.8553C32.8588 15.6726 32.8588 16.9979 32.0414 17.8152L22.2945 27.5621L42.0691 27.5621C43.225 27.5621 44.1621 28.4992 44.1621 29.6552C44.1621 30.8111 43.225 31.7482 42.0691 31.7482H22.2945L32.0414 41.4951C32.8588 42.3125 32.8588 43.6377 32.0414 44.4551C31.224 45.2725 29.8988 45.2725 29.0814 44.4551Z" fill="white"/>
</svg>
