<svg width="18" height="18" viewBox="0 0 18 18" fill="none" xmlns="http://www.w3.org/2000/svg">
<g clip-path="url(#clip0_425_1707)">
<path d="M9.00018 0.818359C4.48136 0.818359 0.818359 4.48136 0.818359 9.00018C0.818359 13.519 4.48136 17.182 9.00018 17.182C13.519 17.182 17.182 13.519 17.182 9.00018C17.182 4.48136 13.519 0.818359 9.00018 0.818359Z" stroke="#333333" stroke-linecap="round" stroke-linejoin="round"/>
<path d="M2.67676 14.1926C2.67676 14.1926 4.50049 11.864 9.00049 11.864C13.5005 11.864 15.325 14.1926 15.325 14.1926M9.00049 9.0004C9.65147 9.0004 10.2758 8.7418 10.7361 8.28148C11.1964 7.82116 11.455 7.19684 11.455 6.54585C11.455 5.89487 11.1964 5.27054 10.7361 4.81023C10.2758 4.34991 9.65147 4.09131 9.00049 4.09131C8.3495 4.09131 7.72518 4.34991 7.26486 4.81023C6.80454 5.27054 6.54594 5.89487 6.54594 6.54585C6.54594 7.19684 6.80454 7.82116 7.26486 8.28148C7.72518 8.7418 8.3495 9.0004 9.00049 9.0004Z" stroke="#333333" stroke-linecap="round" stroke-linejoin="round"/>
</g>
<defs>
<clipPath id="clip0_425_1707">
<rect width="18" height="18" fill="white"/>
</clipPath>
</defs>
</svg>
